<svg xmlns="http://www.w3.org/2000/svg" version="1.1">
    <rect x="0" y="0" width="41" height="41" style="fill:white"/> <rect x="4" y="4" width="1" height="1" style="fill:black"/> <rect x="5" y="4" width="1" height="1" style="fill:black"/> <rect x="6" y="4" width="1" height="1" style="fill:black"/> <rect x="7" y="4" width="1" height="1" style="fill:black"/> <rect x="8" y="4" width="1" height="1" style="fill:black"/> <rect x="9" y="4" width="1" height="1" style="fill:black"/> <rect x="10" y="4" width="1" height="1" style="fill:black"/> <rect x="12" y="4" width="1" height="1" style="fill:black"/> <rect x="15" y="4" width="1" height="1" style="fill:black"/> <rect x="17" y="4" width="1" height="1" style="fill:black"/> <rect x="18" y="4" width="1" height="1" style="fill:black"/> <rect x="19" y="4" width="1" height="1" style="fill:black"/> <rect x="20" y="4" width="1" height="1" style="fill:black"/> <rect x="21" y="4" width="1" height="1" style="fill:black"/> <rect x="26" y="4" width="1" height="1" style="fill:black"/> <rect x="27" y="4" width="1" height="1" style="fill:black"/> <rect x="28" y="4" width="1" height="1" style="fill:black"/> <rect x="30" y="4" width="1" height="1" style="fill:black"/> <rect x="31" y="4" width="1" height="1" style="fill:black"/> <rect x="32" y="4" width="1" height="1" style="fill:black"/> <rect x="33" y="4" width="1" height="1" style="fill:black"/> <rect x="34" y="4" width="1" height="1" style="fill:black"/> <rect x="35" y="4" width="1" height="1" style="fill:black"/> <rect x="36" y="4" width="1" height="1" style="fill:black"/> <rect x="4" y="5" width="1" height="1" style="fill:black"/> <rect x="10" y="5" width="1" height="1" style="fill:black"/> <rect x="14" y="5" width="1" height="1" style="fill:black"/> <rect x="16" y="5" width="1" height="1" style="fill:black"/> <rect x="18" y="5" width="1" height="1" style="fill:black"/> <rect x="21" y="5" width="1" height="1" style="fill:black"/> <rect x="26" y="5" width="1" height="1" style="fill:black"/> <rect x="27" y="5" width="1" height="1" style="fill:black"/> <rect x="30" y="5" width="1" height="1" style="fill:black"/> <rect x="36" y="5" width="1" height="1" style="fill:black"/> <rect x="4" y="6" width="1" height="1" style="fill:black"/> <rect x="6" y="6" width="1" height="1" style="fill:black"/> <rect x="7" y="6" width="1" height="1" style="fill:black"/> <rect x="8" y="6" width="1" height="1" style="fill:black"/> <rect x="10" y="6" width="1" height="1" style="fill:black"/> <rect x="13" y="6" width="1" height="1" style="fill:black"/> <rect x="14" y="6" width="1" height="1" style="fill:black"/> <rect x="15" y="6" width="1" height="1" style="fill:black"/> <rect x="16" y="6" width="1" height="1" style="fill:black"/> <rect x="18" y="6" width="1" height="1" style="fill:black"/> <rect x="19" y="6" width="1" height="1" style="fill:black"/> <rect x="22" y="6" width="1" height="1" style="fill:black"/> <rect x="23" y="6" width="1" height="1" style="fill:black"/> <rect x="28" y="6" width="1" height="1" style="fill:black"/> <rect x="30" y="6" width="1" height="1" style="fill:black"/> <rect x="32" y="6" width="1" height="1" style="fill:black"/> <rect x="33" y="6" width="1" height="1" style="fill:black"/> <rect x="34" y="6" width="1" height="1" style="fill:black"/> <rect x="36" y="6" width="1" height="1" style="fill:black"/> <rect x="4" y="7" width="1" height="1" style="fill:black"/> <rect x="6" y="7" width="1" height="1" style="fill:black"/> <rect x="7" y="7" width="1" height="1" style="fill:black"/> <rect x="8" y="7" width="1" height="1" style="fill:black"/> <rect x="10" y="7" width="1" height="1" style="fill:black"/> <rect x="12" y="7" width="1" height="1" style="fill:black"/> <rect x="14" y="7" width="1" height="1" style="fill:black"/> <rect x="19" y="7" width="1" height="1" style="fill:black"/> <rect x="20" y="7" width="1" height="1" style="fill:black"/> <rect x="21" y="7" width="1" height="1" style="fill:black"/> <rect x="22" y="7" width="1" height="1" style="fill:black"/> <rect x="24" y="7" width="1" height="1" style="fill:black"/> <rect x="26" y="7" width="1" height="1" style="fill:black"/> <rect x="27" y="7" width="1" height="1" style="fill:black"/> <rect x="30" y="7" width="1" height="1" style="fill:black"/> <rect x="32" y="7" width="1" height="1" style="fill:black"/> <rect x="33" y="7" width="1" height="1" style="fill:black"/> <rect x="34" y="7" width="1" height="1" style="fill:black"/> <rect x="36" y="7" width="1" height="1" style="fill:black"/> <rect x="4" y="8" width="1" height="1" style="fill:black"/> <rect x="6" y="8" width="1" height="1" style="fill:black"/> <rect x="7" y="8" width="1" height="1" style="fill:black"/> <rect x="8" y="8" width="1" height="1" style="fill:black"/> <rect x="10" y="8" width="1" height="1" style="fill:black"/> <rect x="14" y="8" width="1" height="1" style="fill:black"/> <rect x="16" y="8" width="1" height="1" style="fill:black"/> <rect x="17" y="8" width="1" height="1" style="fill:black"/> <rect x="18" y="8" width="1" height="1" style="fill:black"/> <rect x="22" y="8" width="1" height="1" style="fill:black"/> <rect x="23" y="8" width="1" height="1" style="fill:black"/> <rect x="25" y="8" width="1" height="1" style="fill:black"/> <rect x="26" y="8" width="1" height="1" style="fill:black"/> <rect x="28" y="8" width="1" height="1" style="fill:black"/> <rect x="30" y="8" width="1" height="1" style="fill:black"/> <rect x="32" y="8" width="1" height="1" style="fill:black"/> <rect x="33" y="8" width="1" height="1" style="fill:black"/> <rect x="34" y="8" width="1" height="1" style="fill:black"/> <rect x="36" y="8" width="1" height="1" style="fill:black"/> <rect x="4" y="9" width="1" height="1" style="fill:black"/> <rect x="10" y="9" width="1" height="1" style="fill:black"/> <rect x="13" y="9" width="1" height="1" style="fill:black"/> <rect x="14" y="9" width="1" height="1" style="fill:black"/> <rect x="16" y="9" width="1" height="1" style="fill:black"/> <rect x="17" y="9" width="1" height="1" style="fill:black"/> <rect x="19" y="9" width="1" height="1" style="fill:black"/> <rect x="21" y="9" width="1" height="1" style="fill:black"/> <rect x="23" y="9" width="1" height="1" style="fill:black"/> <rect x="25" y="9" width="1" height="1" style="fill:black"/> <rect x="27" y="9" width="1" height="1" style="fill:black"/> <rect x="28" y="9" width="1" height="1" style="fill:black"/> <rect x="30" y="9" width="1" height="1" style="fill:black"/> <rect x="36" y="9" width="1" height="1" style="fill:black"/> <rect x="4" y="10" width="1" height="1" style="fill:black"/> <rect x="5" y="10" width="1" height="1" style="fill:black"/> <rect x="6" y="10" width="1" height="1" style="fill:black"/> <rect x="7" y="10" width="1" height="1" style="fill:black"/> <rect x="8" y="10" width="1" height="1" style="fill:black"/> <rect x="9" y="10" width="1" height="1" style="fill:black"/> <rect x="10" y="10" width="1" height="1" style="fill:black"/> <rect x="12" y="10" width="1" height="1" style="fill:black"/> <rect x="14" y="10" width="1" height="1" style="fill:black"/> <rect x="16" y="10" width="1" height="1" style="fill:black"/> <rect x="18" y="10" width="1" height="1" style="fill:black"/> <rect x="20" y="10" width="1" height="1" style="fill:black"/> <rect x="22" y="10" width="1" height="1" style="fill:black"/> <rect x="24" y="10" width="1" height="1" style="fill:black"/> <rect x="26" y="10" width="1" height="1" style="fill:black"/> <rect x="28" y="10" width="1" height="1" style="fill:black"/> <rect x="30" y="10" width="1" height="1" style="fill:black"/> <rect x="31" y="10" width="1" height="1" style="fill:black"/> <rect x="32" y="10" width="1" height="1" style="fill:black"/> <rect x="33" y="10" width="1" height="1" style="fill:black"/> <rect x="34" y="10" width="1" height="1" style="fill:black"/> <rect x="35" y="10" width="1" height="1" style="fill:black"/> <rect x="36" y="10" width="1" height="1" style="fill:black"/> <rect x="13" y="11" width="1" height="1" style="fill:black"/> <rect x="14" y="11" width="1" height="1" style="fill:black"/> <rect x="15" y="11" width="1" height="1" style="fill:black"/> <rect x="17" y="11" width="1" height="1" style="fill:black"/> <rect x="18" y="11" width="1" height="1" style="fill:black"/> <rect x="20" y="11" width="1" height="1" style="fill:black"/> <rect x="24" y="11" width="1" height="1" style="fill:black"/> <rect x="25" y="11" width="1" height="1" style="fill:black"/> <rect x="27" y="11" width="1" height="1" style="fill:black"/> <rect x="6" y="12" width="1" height="1" style="fill:black"/> <rect x="8" y="12" width="1" height="1" style="fill:black"/> <rect x="9" y="12" width="1" height="1" style="fill:black"/> <rect x="10" y="12" width="1" height="1" style="fill:black"/> <rect x="12" y="12" width="1" height="1" style="fill:black"/> <rect x="13" y="12" width="1" height="1" style="fill:black"/> <rect x="14" y="12" width="1" height="1" style="fill:black"/> <rect x="16" y="12" width="1" height="1" style="fill:black"/> <rect x="17" y="12" width="1" height="1" style="fill:black"/> <rect x="18" y="12" width="1" height="1" style="fill:black"/> <rect x="20" y="12" width="1" height="1" style="fill:black"/> <rect x="21" y="12" width="1" height="1" style="fill:black"/> <rect x="22" y="12" width="1" height="1" style="fill:black"/> <rect x="25" y="12" width="1" height="1" style="fill:black"/> <rect x="27" y="12" width="1" height="1" style="fill:black"/> <rect x="29" y="12" width="1" height="1" style="fill:black"/> <rect x="33" y="12" width="1" height="1" style="fill:black"/> <rect x="36" y="12" width="1" height="1" style="fill:black"/> <rect x="5" y="13" width="1" height="1" style="fill:black"/> <rect x="7" y="13" width="1" height="1" style="fill:black"/> <rect x="8" y="13" width="1" height="1" style="fill:black"/> <rect x="13" y="13" width="1" height="1" style="fill:black"/> <rect x="14" y="13" width="1" height="1" style="fill:black"/> <rect x="15" y="13" width="1" height="1" style="fill:black"/> <rect x="17" y="13" width="1" height="1" style="fill:black"/> <rect x="19" y="13" width="1" height="1" style="fill:black"/> <rect x="20" y="13" width="1" height="1" style="fill:black"/> <rect x="21" y="13" width="1" height="1" style="fill:black"/> <rect x="23" y="13" width="1" height="1" style="fill:black"/> <rect x="24" y="13" width="1" height="1" style="fill:black"/> <rect x="26" y="13" width="1" height="1" style="fill:black"/> <rect x="28" y="13" width="1" height="1" style="fill:black"/> <rect x="29" y="13" width="1" height="1" style="fill:black"/> <rect x="30" y="13" width="1" height="1" style="fill:black"/> <rect x="35" y="13" width="1" height="1" style="fill:black"/> <rect x="4" y="14" width="1" height="1" style="fill:black"/> <rect x="5" y="14" width="1" height="1" style="fill:black"/> <rect x="6" y="14" width="1" height="1" style="fill:black"/> <rect x="7" y="14" width="1" height="1" style="fill:black"/> <rect x="10" y="14" width="1" height="1" style="fill:black"/> <rect x="14" y="14" width="1" height="1" style="fill:black"/> <rect x="15" y="14" width="1" height="1" style="fill:black"/> <rect x="16" y="14" width="1" height="1" style="fill:black"/> <rect x="18" y="14" width="1" height="1" style="fill:black"/> <rect x="19" y="14" width="1" height="1" style="fill:black"/> <rect x="21" y="14" width="1" height="1" style="fill:black"/> <rect x="22" y="14" width="1" height="1" style="fill:black"/> <rect x="24" y="14" width="1" height="1" style="fill:black"/> <rect x="25" y="14" width="1" height="1" style="fill:black"/> <rect x="31" y="14" width="1" height="1" style="fill:black"/> <rect x="32" y="14" width="1" height="1" style="fill:black"/> <rect x="34" y="14" width="1" height="1" style="fill:black"/> <rect x="35" y="14" width="1" height="1" style="fill:black"/> <rect x="36" y="14" width="1" height="1" style="fill:black"/> <rect x="4" y="15" width="1" height="1" style="fill:black"/> <rect x="5" y="15" width="1" height="1" style="fill:black"/> <rect x="7" y="15" width="1" height="1" style="fill:black"/> <rect x="8" y="15" width="1" height="1" style="fill:black"/> <rect x="9" y="15" width="1" height="1" style="fill:black"/> <rect x="11" y="15" width="1" height="1" style="fill:black"/> <rect x="12" y="15" width="1" height="1" style="fill:black"/> <rect x="18" y="15" width="1" height="1" style="fill:black"/> <rect x="19" y="15" width="1" height="1" style="fill:black"/> <rect x="23" y="15" width="1" height="1" style="fill:black"/> <rect x="24" y="15" width="1" height="1" style="fill:black"/> <rect x="27" y="15" width="1" height="1" style="fill:black"/> <rect x="28" y="15" width="1" height="1" style="fill:black"/> <rect x="31" y="15" width="1" height="1" style="fill:black"/> <rect x="32" y="15" width="1" height="1" style="fill:black"/> <rect x="35" y="15" width="1" height="1" style="fill:black"/> <rect x="36" y="15" width="1" height="1" style="fill:black"/> <rect x="7" y="16" width="1" height="1" style="fill:black"/> <rect x="10" y="16" width="1" height="1" style="fill:black"/> <rect x="11" y="16" width="1" height="1" style="fill:black"/> <rect x="12" y="16" width="1" height="1" style="fill:black"/> <rect x="15" y="16" width="1" height="1" style="fill:black"/> <rect x="16" y="16" width="1" height="1" style="fill:black"/> <rect x="19" y="16" width="1" height="1" style="fill:black"/> <rect x="20" y="16" width="1" height="1" style="fill:black"/> <rect x="28" y="16" width="1" height="1" style="fill:black"/> <rect x="29" y="16" width="1" height="1" style="fill:black"/> <rect x="30" y="16" width="1" height="1" style="fill:black"/> <rect x="31" y="16" width="1" height="1" style="fill:black"/> <rect x="36" y="16" width="1" height="1" style="fill:black"/> <rect x="4" y="17" width="1" height="1" style="fill:black"/> <rect x="5" y="17" width="1" height="1" style="fill:black"/> <rect x="6" y="17" width="1" height="1" style="fill:black"/> <rect x="7" y="17" width="1" height="1" style="fill:black"/> <rect x="11" y="17" width="1" height="1" style="fill:black"/> <rect x="13" y="17" width="1" height="1" style="fill:black"/> <rect x="16" y="17" width="1" height="1" style="fill:black"/> <rect x="17" y="17" width="1" height="1" style="fill:black"/> <rect x="18" y="17" width="1" height="1" style="fill:black"/> <rect x="22" y="17" width="1" height="1" style="fill:black"/> <rect x="23" y="17" width="1" height="1" style="fill:black"/> <rect x="24" y="17" width="1" height="1" style="fill:black"/> <rect x="28" y="17" width="1" height="1" style="fill:black"/> <rect x="34" y="17" width="1" height="1" style="fill:black"/> <rect x="35" y="17" width="1" height="1" style="fill:black"/> <rect x="5" y="18" width="1" height="1" style="fill:black"/> <rect x="9" y="18" width="1" height="1" style="fill:black"/> <rect x="10" y="18" width="1" height="1" style="fill:black"/> <rect x="14" y="18" width="1" height="1" style="fill:black"/> <rect x="15" y="18" width="1" height="1" style="fill:black"/> <rect x="17" y="18" width="1" height="1" style="fill:black"/> <rect x="20" y="18" width="1" height="1" style="fill:black"/> <rect x="21" y="18" width="1" height="1" style="fill:black"/> <rect x="22" y="18" width="1" height="1" style="fill:black"/> <rect x="23" y="18" width="1" height="1" style="fill:black"/> <rect x="24" y="18" width="1" height="1" style="fill:black"/> <rect x="26" y="18" width="1" height="1" style="fill:black"/> <rect x="31" y="18" width="1" height="1" style="fill:black"/> <rect x="32" y="18" width="1" height="1" style="fill:black"/> <rect x="33" y="18" width="1" height="1" style="fill:black"/> <rect x="35" y="18" width="1" height="1" style="fill:black"/> <rect x="36" y="18" width="1" height="1" style="fill:black"/> <rect x="4" y="19" width="1" height="1" style="fill:black"/> <rect x="7" y="19" width="1" height="1" style="fill:black"/> <rect x="11" y="19" width="1" height="1" style="fill:black"/> <rect x="13" y="19" width="1" height="1" style="fill:black"/> <rect x="17" y="19" width="1" height="1" style="fill:black"/> <rect x="18" y="19" width="1" height="1" style="fill:black"/> <rect x="19" y="19" width="1" height="1" style="fill:black"/> <rect x="20" y="19" width="1" height="1" style="fill:black"/> <rect x="23" y="19" width="1" height="1" style="fill:black"/> <rect x="24" y="19" width="1" height="1" style="fill:black"/> <rect x="25" y="19" width="1" height="1" style="fill:black"/> <rect x="27" y="19" width="1" height="1" style="fill:black"/> <rect x="29" y="19" width="1" height="1" style="fill:black"/> <rect x="35" y="19" width="1" height="1" style="fill:black"/> <rect x="4" y="20" width="1" height="1" style="fill:black"/> <rect x="6" y="20" width="1" height="1" style="fill:black"/> <rect x="8" y="20" width="1" height="1" style="fill:black"/> <rect x="9" y="20" width="1" height="1" style="fill:black"/> <rect x="10" y="20" width="1" height="1" style="fill:black"/> <rect x="11" y="20" width="1" height="1" style="fill:black"/> <rect x="12" y="20" width="1" height="1" style="fill:black"/> <rect x="15" y="20" width="1" height="1" style="fill:black"/> <rect x="22" y="20" width="1" height="1" style="fill:black"/> <rect x="24" y="20" width="1" height="1" style="fill:black"/> <rect x="27" y="20" width="1" height="1" style="fill:black"/> <rect x="28" y="20" width="1" height="1" style="fill:black"/> <rect x="30" y="20" width="1" height="1" style="fill:black"/> <rect x="33" y="20" width="1" height="1" style="fill:black"/> <rect x="36" y="20" width="1" height="1" style="fill:black"/> <rect x="8" y="21" width="1" height="1" style="fill:black"/> <rect x="13" y="21" width="1" height="1" style="fill:black"/> <rect x="17" y="21" width="1" height="1" style="fill:black"/> <rect x="18" y="21" width="1" height="1" style="fill:black"/> <rect x="19" y="21" width="1" height="1" style="fill:black"/> <rect x="21" y="21" width="1" height="1" style="fill:black"/> <rect x="22" y="21" width="1" height="1" style="fill:black"/> <rect x="23" y="21" width="1" height="1" style="fill:black"/> <rect x="24" y="21" width="1" height="1" style="fill:black"/> <rect x="25" y="21" width="1" height="1" style="fill:black"/> <rect x="26" y="21" width="1" height="1" style="fill:black"/> <rect x="29" y="21" width="1" height="1" style="fill:black"/> <rect x="30" y="21" width="1" height="1" style="fill:black"/> <rect x="33" y="21" width="1" height="1" style="fill:black"/> <rect x="35" y="21" width="1" height="1" style="fill:black"/> <rect x="36" y="21" width="1" height="1" style="fill:black"/> <rect x="4" y="22" width="1" height="1" style="fill:black"/> <rect x="6" y="22" width="1" height="1" style="fill:black"/> <rect x="10" y="22" width="1" height="1" style="fill:black"/> <rect x="12" y="22" width="1" height="1" style="fill:black"/> <rect x="14" y="22" width="1" height="1" style="fill:black"/> <rect x="16" y="22" width="1" height="1" style="fill:black"/> <rect x="18" y="22" width="1" height="1" style="fill:black"/> <rect x="20" y="22" width="1" height="1" style="fill:black"/> <rect x="21" y="22" width="1" height="1" style="fill:black"/> <rect x="22" y="22" width="1" height="1" style="fill:black"/> <rect x="23" y="22" width="1" height="1" style="fill:black"/> <rect x="24" y="22" width="1" height="1" style="fill:black"/> <rect x="26" y="22" width="1" height="1" style="fill:black"/> <rect x="30" y="22" width="1" height="1" style="fill:black"/> <rect x="31" y="22" width="1" height="1" style="fill:black"/> <rect x="33" y="22" width="1" height="1" style="fill:black"/> <rect x="35" y="22" width="1" height="1" style="fill:black"/> <rect x="36" y="22" width="1" height="1" style="fill:black"/> <rect x="4" y="23" width="1" height="1" style="fill:black"/> <rect x="5" y="23" width="1" height="1" style="fill:black"/> <rect x="7" y="23" width="1" height="1" style="fill:black"/> <rect x="9" y="23" width="1" height="1" style="fill:black"/> <rect x="14" y="23" width="1" height="1" style="fill:black"/> <rect x="19" y="23" width="1" height="1" style="fill:black"/> <rect x="23" y="23" width="1" height="1" style="fill:black"/> <rect x="24" y="23" width="1" height="1" style="fill:black"/> <rect x="25" y="23" width="1" height="1" style="fill:black"/> <rect x="26" y="23" width="1" height="1" style="fill:black"/> <rect x="27" y="23" width="1" height="1" style="fill:black"/> <rect x="29" y="23" width="1" height="1" style="fill:black"/> <rect x="30" y="23" width="1" height="1" style="fill:black"/> <rect x="31" y="23" width="1" height="1" style="fill:black"/> <rect x="35" y="23" width="1" height="1" style="fill:black"/> <rect x="4" y="24" width="1" height="1" style="fill:black"/> <rect x="5" y="24" width="1" height="1" style="fill:black"/> <rect x="8" y="24" width="1" height="1" style="fill:black"/> <rect x="9" y="24" width="1" height="1" style="fill:black"/> <rect x="10" y="24" width="1" height="1" style="fill:black"/> <rect x="12" y="24" width="1" height="1" style="fill:black"/> <rect x="13" y="24" width="1" height="1" style="fill:black"/> <rect x="17" y="24" width="1" height="1" style="fill:black"/> <rect x="20" y="24" width="1" height="1" style="fill:black"/> <rect x="21" y="24" width="1" height="1" style="fill:black"/> <rect x="22" y="24" width="1" height="1" style="fill:black"/> <rect x="24" y="24" width="1" height="1" style="fill:black"/> <rect x="25" y="24" width="1" height="1" style="fill:black"/> <rect x="26" y="24" width="1" height="1" style="fill:black"/> <rect x="28" y="24" width="1" height="1" style="fill:black"/> <rect x="30" y="24" width="1" height="1" style="fill:black"/> <rect x="32" y="24" width="1" height="1" style="fill:black"/> <rect x="35" y="24" width="1" height="1" style="fill:black"/> <rect x="8" y="25" width="1" height="1" style="fill:black"/> <rect x="9" y="25" width="1" height="1" style="fill:black"/> <rect x="11" y="25" width="1" height="1" style="fill:black"/> <rect x="12" y="25" width="1" height="1" style="fill:black"/> <rect x="13" y="25" width="1" height="1" style="fill:black"/> <rect x="15" y="25" width="1" height="1" style="fill:black"/> <rect x="17" y="25" width="1" height="1" style="fill:black"/> <rect x="18" y="25" width="1" height="1" style="fill:black"/> <rect x="20" y="25" width="1" height="1" style="fill:black"/> <rect x="21" y="25" width="1" height="1" style="fill:black"/> <rect x="25" y="25" width="1" height="1" style="fill:black"/> <rect x="27" y="25" width="1" height="1" style="fill:black"/> <rect x="28" y="25" width="1" height="1" style="fill:black"/> <rect x="29" y="25" width="1" height="1" style="fill:black"/> <rect x="30" y="25" width="1" height="1" style="fill:black"/> <rect x="31" y="25" width="1" height="1" style="fill:black"/> <rect x="33" y="25" width="1" height="1" style="fill:black"/> <rect x="4" y="26" width="1" height="1" style="fill:black"/> <rect x="6" y="26" width="1" height="1" style="fill:black"/> <rect x="7" y="26" width="1" height="1" style="fill:black"/> <rect x="9" y="26" width="1" height="1" style="fill:black"/> <rect x="10" y="26" width="1" height="1" style="fill:black"/> <rect x="11" y="26" width="1" height="1" style="fill:black"/> <rect x="13" y="26" width="1" height="1" style="fill:black"/> <rect x="14" y="26" width="1" height="1" style="fill:black"/> <rect x="16" y="26" width="1" height="1" style="fill:black"/> <rect x="18" y="26" width="1" height="1" style="fill:black"/> <rect x="19" y="26" width="1" height="1" style="fill:black"/> <rect x="20" y="26" width="1" height="1" style="fill:black"/> <rect x="21" y="26" width="1" height="1" style="fill:black"/> <rect x="22" y="26" width="1" height="1" style="fill:black"/> <rect x="23" y="26" width="1" height="1" style="fill:black"/> <rect x="26" y="26" width="1" height="1" style="fill:black"/> <rect x="28" y="26" width="1" height="1" style="fill:black"/> <rect x="29" y="26" width="1" height="1" style="fill:black"/> <rect x="31" y="26" width="1" height="1" style="fill:black"/> <rect x="32" y="26" width="1" height="1" style="fill:black"/> <rect x="33" y="26" width="1" height="1" style="fill:black"/> <rect x="35" y="26" width="1" height="1" style="fill:black"/> <rect x="36" y="26" width="1" height="1" style="fill:black"/> <rect x="5" y="27" width="1" height="1" style="fill:black"/> <rect x="9" y="27" width="1" height="1" style="fill:black"/> <rect x="12" y="27" width="1" height="1" style="fill:black"/> <rect x="14" y="27" width="1" height="1" style="fill:black"/> <rect x="17" y="27" width="1" height="1" style="fill:black"/> <rect x="18" y="27" width="1" height="1" style="fill:black"/> <rect x="21" y="27" width="1" height="1" style="fill:black"/> <rect x="25" y="27" width="1" height="1" style="fill:black"/> <rect x="27" y="27" width="1" height="1" style="fill:black"/> <rect x="29" y="27" width="1" height="1" style="fill:black"/> <rect x="30" y="27" width="1" height="1" style="fill:black"/> <rect x="31" y="27" width="1" height="1" style="fill:black"/> <rect x="32" y="27" width="1" height="1" style="fill:black"/> <rect x="33" y="27" width="1" height="1" style="fill:black"/> <rect x="35" y="27" width="1" height="1" style="fill:black"/> <rect x="4" y="28" width="1" height="1" style="fill:black"/> <rect x="9" y="28" width="1" height="1" style="fill:black"/> <rect x="10" y="28" width="1" height="1" style="fill:black"/> <rect x="12" y="28" width="1" height="1" style="fill:black"/> <rect x="13" y="28" width="1" height="1" style="fill:black"/> <rect x="14" y="28" width="1" height="1" style="fill:black"/> <rect x="15" y="28" width="1" height="1" style="fill:black"/> <rect x="18" y="28" width="1" height="1" style="fill:black"/> <rect x="19" y="28" width="1" height="1" style="fill:black"/> <rect x="20" y="28" width="1" height="1" style="fill:black"/> <rect x="23" y="28" width="1" height="1" style="fill:black"/> <rect x="24" y="28" width="1" height="1" style="fill:black"/> <rect x="25" y="28" width="1" height="1" style="fill:black"/> <rect x="28" y="28" width="1" height="1" style="fill:black"/> <rect x="29" y="28" width="1" height="1" style="fill:black"/> <rect x="30" y="28" width="1" height="1" style="fill:black"/> <rect x="31" y="28" width="1" height="1" style="fill:black"/> <rect x="32" y="28" width="1" height="1" style="fill:black"/> <rect x="36" y="28" width="1" height="1" style="fill:black"/> <rect x="12" y="29" width="1" height="1" style="fill:black"/> <rect x="13" y="29" width="1" height="1" style="fill:black"/> <rect x="14" y="29" width="1" height="1" style="fill:black"/> <rect x="17" y="29" width="1" height="1" style="fill:black"/> <rect x="19" y="29" width="1" height="1" style="fill:black"/> <rect x="22" y="29" width="1" height="1" style="fill:black"/> <rect x="24" y="29" width="1" height="1" style="fill:black"/> <rect x="25" y="29" width="1" height="1" style="fill:black"/> <rect x="27" y="29" width="1" height="1" style="fill:black"/> <rect x="28" y="29" width="1" height="1" style="fill:black"/> <rect x="32" y="29" width="1" height="1" style="fill:black"/> <rect x="4" y="30" width="1" height="1" style="fill:black"/> <rect x="5" y="30" width="1" height="1" style="fill:black"/> <rect x="6" y="30" width="1" height="1" style="fill:black"/> <rect x="7" y="30" width="1" height="1" style="fill:black"/> <rect x="8" y="30" width="1" height="1" style="fill:black"/> <rect x="9" y="30" width="1" height="1" style="fill:black"/> <rect x="10" y="30" width="1" height="1" style="fill:black"/> <rect x="14" y="30" width="1" height="1" style="fill:black"/> <rect x="16" y="30" width="1" height="1" style="fill:black"/> <rect x="21" y="30" width="1" height="1" style="fill:black"/> <rect x="23" y="30" width="1" height="1" style="fill:black"/> <rect x="26" y="30" width="1" height="1" style="fill:black"/> <rect x="28" y="30" width="1" height="1" style="fill:black"/> <rect x="30" y="30" width="1" height="1" style="fill:black"/> <rect x="32" y="30" width="1" height="1" style="fill:black"/> <rect x="33" y="30" width="1" height="1" style="fill:black"/> <rect x="34" y="30" width="1" height="1" style="fill:black"/> <rect x="35" y="30" width="1" height="1" style="fill:black"/> <rect x="36" y="30" width="1" height="1" style="fill:black"/> <rect x="4" y="31" width="1" height="1" style="fill:black"/> <rect x="10" y="31" width="1" height="1" style="fill:black"/> <rect x="12" y="31" width="1" height="1" style="fill:black"/> <rect x="14" y="31" width="1" height="1" style="fill:black"/> <rect x="15" y="31" width="1" height="1" style="fill:black"/> <rect x="16" y="31" width="1" height="1" style="fill:black"/> <rect x="20" y="31" width="1" height="1" style="fill:black"/> <rect x="22" y="31" width="1" height="1" style="fill:black"/> <rect x="23" y="31" width="1" height="1" style="fill:black"/> <rect x="24" y="31" width="1" height="1" style="fill:black"/> <rect x="25" y="31" width="1" height="1" style="fill:black"/> <rect x="26" y="31" width="1" height="1" style="fill:black"/> <rect x="28" y="31" width="1" height="1" style="fill:black"/> <rect x="32" y="31" width="1" height="1" style="fill:black"/> <rect x="35" y="31" width="1" height="1" style="fill:black"/> <rect x="4" y="32" width="1" height="1" style="fill:black"/> <rect x="6" y="32" width="1" height="1" style="fill:black"/> <rect x="7" y="32" width="1" height="1" style="fill:black"/> <rect x="8" y="32" width="1" height="1" style="fill:black"/> <rect x="10" y="32" width="1" height="1" style="fill:black"/> <rect x="12" y="32" width="1" height="1" style="fill:black"/> <rect x="14" y="32" width="1" height="1" style="fill:black"/> <rect x="15" y="32" width="1" height="1" style="fill:black"/> <rect x="16" y="32" width="1" height="1" style="fill:black"/> <rect x="17" y="32" width="1" height="1" style="fill:black"/> <rect x="24" y="32" width="1" height="1" style="fill:black"/> <rect x="26" y="32" width="1" height="1" style="fill:black"/> <rect x="28" y="32" width="1" height="1" style="fill:black"/> <rect x="29" y="32" width="1" height="1" style="fill:black"/> <rect x="30" y="32" width="1" height="1" style="fill:black"/> <rect x="31" y="32" width="1" height="1" style="fill:black"/> <rect x="32" y="32" width="1" height="1" style="fill:black"/> <rect x="36" y="32" width="1" height="1" style="fill:black"/> <rect x="4" y="33" width="1" height="1" style="fill:black"/> <rect x="6" y="33" width="1" height="1" style="fill:black"/> <rect x="7" y="33" width="1" height="1" style="fill:black"/> <rect x="8" y="33" width="1" height="1" style="fill:black"/> <rect x="10" y="33" width="1" height="1" style="fill:black"/> <rect x="16" y="33" width="1" height="1" style="fill:black"/> <rect x="17" y="33" width="1" height="1" style="fill:black"/> <rect x="18" y="33" width="1" height="1" style="fill:black"/> <rect x="19" y="33" width="1" height="1" style="fill:black"/> <rect x="21" y="33" width="1" height="1" style="fill:black"/> <rect x="22" y="33" width="1" height="1" style="fill:black"/> <rect x="24" y="33" width="1" height="1" style="fill:black"/> <rect x="26" y="33" width="1" height="1" style="fill:black"/> <rect x="27" y="33" width="1" height="1" style="fill:black"/> <rect x="31" y="33" width="1" height="1" style="fill:black"/> <rect x="32" y="33" width="1" height="1" style="fill:black"/> <rect x="33" y="33" width="1" height="1" style="fill:black"/> <rect x="35" y="33" width="1" height="1" style="fill:black"/> <rect x="36" y="33" width="1" height="1" style="fill:black"/> <rect x="4" y="34" width="1" height="1" style="fill:black"/> <rect x="6" y="34" width="1" height="1" style="fill:black"/> <rect x="7" y="34" width="1" height="1" style="fill:black"/> <rect x="8" y="34" width="1" height="1" style="fill:black"/> <rect x="10" y="34" width="1" height="1" style="fill:black"/> <rect x="12" y="34" width="1" height="1" style="fill:black"/> <rect x="13" y="34" width="1" height="1" style="fill:black"/> <rect x="15" y="34" width="1" height="1" style="fill:black"/> <rect x="16" y="34" width="1" height="1" style="fill:black"/> <rect x="18" y="34" width="1" height="1" style="fill:black"/> <rect x="22" y="34" width="1" height="1" style="fill:black"/> <rect x="28" y="34" width="1" height="1" style="fill:black"/> <rect x="31" y="34" width="1" height="1" style="fill:black"/> <rect x="32" y="34" width="1" height="1" style="fill:black"/> <rect x="36" y="34" width="1" height="1" style="fill:black"/> <rect x="4" y="35" width="1" height="1" style="fill:black"/> <rect x="10" y="35" width="1" height="1" style="fill:black"/> <rect x="14" y="35" width="1" height="1" style="fill:black"/> <rect x="15" y="35" width="1" height="1" style="fill:black"/> <rect x="18" y="35" width="1" height="1" style="fill:black"/> <rect x="20" y="35" width="1" height="1" style="fill:black"/> <rect x="22" y="35" width="1" height="1" style="fill:black"/> <rect x="25" y="35" width="1" height="1" style="fill:black"/> <rect x="27" y="35" width="1" height="1" style="fill:black"/> <rect x="28" y="35" width="1" height="1" style="fill:black"/> <rect x="31" y="35" width="1" height="1" style="fill:black"/> <rect x="35" y="35" width="1" height="1" style="fill:black"/> <rect x="4" y="36" width="1" height="1" style="fill:black"/> <rect x="5" y="36" width="1" height="1" style="fill:black"/> <rect x="6" y="36" width="1" height="1" style="fill:black"/> <rect x="7" y="36" width="1" height="1" style="fill:black"/> <rect x="8" y="36" width="1" height="1" style="fill:black"/> <rect x="9" y="36" width="1" height="1" style="fill:black"/> <rect x="10" y="36" width="1" height="1" style="fill:black"/> <rect x="13" y="36" width="1" height="1" style="fill:black"/> <rect x="17" y="36" width="1" height="1" style="fill:black"/> <rect x="18" y="36" width="1" height="1" style="fill:black"/> <rect x="19" y="36" width="1" height="1" style="fill:black"/> <rect x="21" y="36" width="1" height="1" style="fill:black"/> <rect x="23" y="36" width="1" height="1" style="fill:black"/> <rect x="24" y="36" width="1" height="1" style="fill:black"/> <rect x="25" y="36" width="1" height="1" style="fill:black"/> <rect x="26" y="36" width="1" height="1" style="fill:black"/> <rect x="27" y="36" width="1" height="1" style="fill:black"/> <rect x="28" y="36" width="1" height="1" style="fill:black"/> <rect x="35" y="36" width="1" height="1" style="fill:black"/> <rect x="36" y="36" width="1" height="1" style="fill:black"/></svg>