<svg xmlns="http://www.w3.org/2000/svg" version="1.1">
    <rect x="0" y="0" width="37" height="37" style="fill:white"/> <rect x="4" y="4" width="1" height="1" style="fill:black"/> <rect x="5" y="4" width="1" height="1" style="fill:black"/> <rect x="6" y="4" width="1" height="1" style="fill:black"/> <rect x="7" y="4" width="1" height="1" style="fill:black"/> <rect x="8" y="4" width="1" height="1" style="fill:black"/> <rect x="9" y="4" width="1" height="1" style="fill:black"/> <rect x="10" y="4" width="1" height="1" style="fill:black"/> <rect x="13" y="4" width="1" height="1" style="fill:black"/> <rect x="14" y="4" width="1" height="1" style="fill:black"/> <rect x="16" y="4" width="1" height="1" style="fill:black"/> <rect x="19" y="4" width="1" height="1" style="fill:black"/> <rect x="20" y="4" width="1" height="1" style="fill:black"/> <rect x="21" y="4" width="1" height="1" style="fill:black"/> <rect x="22" y="4" width="1" height="1" style="fill:black"/> <rect x="23" y="4" width="1" height="1" style="fill:black"/> <rect x="26" y="4" width="1" height="1" style="fill:black"/> <rect x="27" y="4" width="1" height="1" style="fill:black"/> <rect x="28" y="4" width="1" height="1" style="fill:black"/> <rect x="29" y="4" width="1" height="1" style="fill:black"/> <rect x="30" y="4" width="1" height="1" style="fill:black"/> <rect x="31" y="4" width="1" height="1" style="fill:black"/> <rect x="32" y="4" width="1" height="1" style="fill:black"/> <rect x="4" y="5" width="1" height="1" style="fill:black"/> <rect x="10" y="5" width="1" height="1" style="fill:black"/> <rect x="12" y="5" width="1" height="1" style="fill:black"/> <rect x="15" y="5" width="1" height="1" style="fill:black"/> <rect x="16" y="5" width="1" height="1" style="fill:black"/> <rect x="17" y="5" width="1" height="1" style="fill:black"/> <rect x="19" y="5" width="1" height="1" style="fill:black"/> <rect x="21" y="5" width="1" height="1" style="fill:black"/> <rect x="23" y="5" width="1" height="1" style="fill:black"/> <rect x="26" y="5" width="1" height="1" style="fill:black"/> <rect x="32" y="5" width="1" height="1" style="fill:black"/> <rect x="4" y="6" width="1" height="1" style="fill:black"/> <rect x="6" y="6" width="1" height="1" style="fill:black"/> <rect x="7" y="6" width="1" height="1" style="fill:black"/> <rect x="8" y="6" width="1" height="1" style="fill:black"/> <rect x="10" y="6" width="1" height="1" style="fill:black"/> <rect x="12" y="6" width="1" height="1" style="fill:black"/> <rect x="14" y="6" width="1" height="1" style="fill:black"/> <rect x="16" y="6" width="1" height="1" style="fill:black"/> <rect x="18" y="6" width="1" height="1" style="fill:black"/> <rect x="19" y="6" width="1" height="1" style="fill:black"/> <rect x="21" y="6" width="1" height="1" style="fill:black"/> <rect x="22" y="6" width="1" height="1" style="fill:black"/> <rect x="26" y="6" width="1" height="1" style="fill:black"/> <rect x="28" y="6" width="1" height="1" style="fill:black"/> <rect x="29" y="6" width="1" height="1" style="fill:black"/> <rect x="30" y="6" width="1" height="1" style="fill:black"/> <rect x="32" y="6" width="1" height="1" style="fill:black"/> <rect x="4" y="7" width="1" height="1" style="fill:black"/> <rect x="6" y="7" width="1" height="1" style="fill:black"/> <rect x="7" y="7" width="1" height="1" style="fill:black"/> <rect x="8" y="7" width="1" height="1" style="fill:black"/> <rect x="10" y="7" width="1" height="1" style="fill:black"/> <rect x="12" y="7" width="1" height="1" style="fill:black"/> <rect x="13" y="7" width="1" height="1" style="fill:black"/> <rect x="14" y="7" width="1" height="1" style="fill:black"/> <rect x="18" y="7" width="1" height="1" style="fill:black"/> <rect x="19" y="7" width="1" height="1" style="fill:black"/> <rect x="21" y="7" width="1" height="1" style="fill:black"/> <rect x="22" y="7" width="1" height="1" style="fill:black"/> <rect x="23" y="7" width="1" height="1" style="fill:black"/> <rect x="26" y="7" width="1" height="1" style="fill:black"/> <rect x="28" y="7" width="1" height="1" style="fill:black"/> <rect x="29" y="7" width="1" height="1" style="fill:black"/> <rect x="30" y="7" width="1" height="1" style="fill:black"/> <rect x="32" y="7" width="1" height="1" style="fill:black"/> <rect x="4" y="8" width="1" height="1" style="fill:black"/> <rect x="6" y="8" width="1" height="1" style="fill:black"/> <rect x="7" y="8" width="1" height="1" style="fill:black"/> <rect x="8" y="8" width="1" height="1" style="fill:black"/> <rect x="10" y="8" width="1" height="1" style="fill:black"/> <rect x="12" y="8" width="1" height="1" style="fill:black"/> <rect x="16" y="8" width="1" height="1" style="fill:black"/> <rect x="17" y="8" width="1" height="1" style="fill:black"/> <rect x="21" y="8" width="1" height="1" style="fill:black"/> <rect x="22" y="8" width="1" height="1" style="fill:black"/> <rect x="26" y="8" width="1" height="1" style="fill:black"/> <rect x="28" y="8" width="1" height="1" style="fill:black"/> <rect x="29" y="8" width="1" height="1" style="fill:black"/> <rect x="30" y="8" width="1" height="1" style="fill:black"/> <rect x="32" y="8" width="1" height="1" style="fill:black"/> <rect x="4" y="9" width="1" height="1" style="fill:black"/> <rect x="10" y="9" width="1" height="1" style="fill:black"/> <rect x="12" y="9" width="1" height="1" style="fill:black"/> <rect x="13" y="9" width="1" height="1" style="fill:black"/> <rect x="15" y="9" width="1" height="1" style="fill:black"/> <rect x="16" y="9" width="1" height="1" style="fill:black"/> <rect x="17" y="9" width="1" height="1" style="fill:black"/> <rect x="18" y="9" width="1" height="1" style="fill:black"/> <rect x="20" y="9" width="1" height="1" style="fill:black"/> <rect x="24" y="9" width="1" height="1" style="fill:black"/> <rect x="26" y="9" width="1" height="1" style="fill:black"/> <rect x="32" y="9" width="1" height="1" style="fill:black"/> <rect x="4" y="10" width="1" height="1" style="fill:black"/> <rect x="5" y="10" width="1" height="1" style="fill:black"/> <rect x="6" y="10" width="1" height="1" style="fill:black"/> <rect x="7" y="10" width="1" height="1" style="fill:black"/> <rect x="8" y="10" width="1" height="1" style="fill:black"/> <rect x="9" y="10" width="1" height="1" style="fill:black"/> <rect x="10" y="10" width="1" height="1" style="fill:black"/> <rect x="12" y="10" width="1" height="1" style="fill:black"/> <rect x="14" y="10" width="1" height="1" style="fill:black"/> <rect x="16" y="10" width="1" height="1" style="fill:black"/> <rect x="18" y="10" width="1" height="1" style="fill:black"/> <rect x="20" y="10" width="1" height="1" style="fill:black"/> <rect x="22" y="10" width="1" height="1" style="fill:black"/> <rect x="24" y="10" width="1" height="1" style="fill:black"/> <rect x="26" y="10" width="1" height="1" style="fill:black"/> <rect x="27" y="10" width="1" height="1" style="fill:black"/> <rect x="28" y="10" width="1" height="1" style="fill:black"/> <rect x="29" y="10" width="1" height="1" style="fill:black"/> <rect x="30" y="10" width="1" height="1" style="fill:black"/> <rect x="31" y="10" width="1" height="1" style="fill:black"/> <rect x="32" y="10" width="1" height="1" style="fill:black"/> <rect x="13" y="11" width="1" height="1" style="fill:black"/> <rect x="14" y="11" width="1" height="1" style="fill:black"/> <rect x="17" y="11" width="1" height="1" style="fill:black"/> <rect x="22" y="11" width="1" height="1" style="fill:black"/> <rect x="6" y="12" width="1" height="1" style="fill:black"/> <rect x="9" y="12" width="1" height="1" style="fill:black"/> <rect x="10" y="12" width="1" height="1" style="fill:black"/> <rect x="11" y="12" width="1" height="1" style="fill:black"/> <rect x="12" y="12" width="1" height="1" style="fill:black"/> <rect x="13" y="12" width="1" height="1" style="fill:black"/> <rect x="14" y="12" width="1" height="1" style="fill:black"/> <rect x="15" y="12" width="1" height="1" style="fill:black"/> <rect x="18" y="12" width="1" height="1" style="fill:black"/> <rect x="19" y="12" width="1" height="1" style="fill:black"/> <rect x="20" y="12" width="1" height="1" style="fill:black"/> <rect x="21" y="12" width="1" height="1" style="fill:black"/> <rect x="22" y="12" width="1" height="1" style="fill:black"/> <rect x="23" y="12" width="1" height="1" style="fill:black"/> <rect x="25" y="12" width="1" height="1" style="fill:black"/> <rect x="27" y="12" width="1" height="1" style="fill:black"/> <rect x="28" y="12" width="1" height="1" style="fill:black"/> <rect x="29" y="12" width="1" height="1" style="fill:black"/> <rect x="30" y="12" width="1" height="1" style="fill:black"/> <rect x="31" y="12" width="1" height="1" style="fill:black"/> <rect x="8" y="13" width="1" height="1" style="fill:black"/> <rect x="13" y="13" width="1" height="1" style="fill:black"/> <rect x="14" y="13" width="1" height="1" style="fill:black"/> <rect x="16" y="13" width="1" height="1" style="fill:black"/> <rect x="18" y="13" width="1" height="1" style="fill:black"/> <rect x="21" y="13" width="1" height="1" style="fill:black"/> <rect x="22" y="13" width="1" height="1" style="fill:black"/> <rect x="25" y="13" width="1" height="1" style="fill:black"/> <rect x="29" y="13" width="1" height="1" style="fill:black"/> <rect x="32" y="13" width="1" height="1" style="fill:black"/> <rect x="6" y="14" width="1" height="1" style="fill:black"/> <rect x="7" y="14" width="1" height="1" style="fill:black"/> <rect x="9" y="14" width="1" height="1" style="fill:black"/> <rect x="10" y="14" width="1" height="1" style="fill:black"/> <rect x="13" y="14" width="1" height="1" style="fill:black"/> <rect x="16" y="14" width="1" height="1" style="fill:black"/> <rect x="17" y="14" width="1" height="1" style="fill:black"/> <rect x="18" y="14" width="1" height="1" style="fill:black"/> <rect x="19" y="14" width="1" height="1" style="fill:black"/> <rect x="21" y="14" width="1" height="1" style="fill:black"/> <rect x="23" y="14" width="1" height="1" style="fill:black"/> <rect x="26" y="14" width="1" height="1" style="fill:black"/> <rect x="28" y="14" width="1" height="1" style="fill:black"/> <rect x="30" y="14" width="1" height="1" style="fill:black"/> <rect x="32" y="14" width="1" height="1" style="fill:black"/> <rect x="4" y="15" width="1" height="1" style="fill:black"/> <rect x="5" y="15" width="1" height="1" style="fill:black"/> <rect x="9" y="15" width="1" height="1" style="fill:black"/> <rect x="14" y="15" width="1" height="1" style="fill:black"/> <rect x="15" y="15" width="1" height="1" style="fill:black"/> <rect x="17" y="15" width="1" height="1" style="fill:black"/> <rect x="20" y="15" width="1" height="1" style="fill:black"/> <rect x="21" y="15" width="1" height="1" style="fill:black"/> <rect x="22" y="15" width="1" height="1" style="fill:black"/> <rect x="29" y="15" width="1" height="1" style="fill:black"/> <rect x="9" y="16" width="1" height="1" style="fill:black"/> <rect x="10" y="16" width="1" height="1" style="fill:black"/> <rect x="11" y="16" width="1" height="1" style="fill:black"/> <rect x="12" y="16" width="1" height="1" style="fill:black"/> <rect x="14" y="16" width="1" height="1" style="fill:black"/> <rect x="15" y="16" width="1" height="1" style="fill:black"/> <rect x="17" y="16" width="1" height="1" style="fill:black"/> <rect x="18" y="16" width="1" height="1" style="fill:black"/> <rect x="19" y="16" width="1" height="1" style="fill:black"/> <rect x="21" y="16" width="1" height="1" style="fill:black"/> <rect x="23" y="16" width="1" height="1" style="fill:black"/> <rect x="24" y="16" width="1" height="1" style="fill:black"/> <rect x="26" y="16" width="1" height="1" style="fill:black"/> <rect x="29" y="16" width="1" height="1" style="fill:black"/> <rect x="31" y="16" width="1" height="1" style="fill:black"/> <rect x="32" y="16" width="1" height="1" style="fill:black"/> <rect x="4" y="17" width="1" height="1" style="fill:black"/> <rect x="5" y="17" width="1" height="1" style="fill:black"/> <rect x="6" y="17" width="1" height="1" style="fill:black"/> <rect x="9" y="17" width="1" height="1" style="fill:black"/> <rect x="12" y="17" width="1" height="1" style="fill:black"/> <rect x="13" y="17" width="1" height="1" style="fill:black"/> <rect x="14" y="17" width="1" height="1" style="fill:black"/> <rect x="17" y="17" width="1" height="1" style="fill:black"/> <rect x="18" y="17" width="1" height="1" style="fill:black"/> <rect x="21" y="17" width="1" height="1" style="fill:black"/> <rect x="24" y="17" width="1" height="1" style="fill:black"/> <rect x="26" y="17" width="1" height="1" style="fill:black"/> <rect x="27" y="17" width="1" height="1" style="fill:black"/> <rect x="32" y="17" width="1" height="1" style="fill:black"/> <rect x="5" y="18" width="1" height="1" style="fill:black"/> <rect x="6" y="18" width="1" height="1" style="fill:black"/> <rect x="8" y="18" width="1" height="1" style="fill:black"/> <rect x="9" y="18" width="1" height="1" style="fill:black"/> <rect x="10" y="18" width="1" height="1" style="fill:black"/> <rect x="12" y="18" width="1" height="1" style="fill:black"/> <rect x="13" y="18" width="1" height="1" style="fill:black"/> <rect x="14" y="18" width="1" height="1" style="fill:black"/> <rect x="15" y="18" width="1" height="1" style="fill:black"/> <rect x="18" y="18" width="1" height="1" style="fill:black"/> <rect x="19" y="18" width="1" height="1" style="fill:black"/> <rect x="23" y="18" width="1" height="1" style="fill:black"/> <rect x="30" y="18" width="1" height="1" style="fill:black"/> <rect x="32" y="18" width="1" height="1" style="fill:black"/> <rect x="4" y="19" width="1" height="1" style="fill:black"/> <rect x="5" y="19" width="1" height="1" style="fill:black"/> <rect x="7" y="19" width="1" height="1" style="fill:black"/> <rect x="9" y="19" width="1" height="1" style="fill:black"/> <rect x="11" y="19" width="1" height="1" style="fill:black"/> <rect x="12" y="19" width="1" height="1" style="fill:black"/> <rect x="14" y="19" width="1" height="1" style="fill:black"/> <rect x="16" y="19" width="1" height="1" style="fill:black"/> <rect x="20" y="19" width="1" height="1" style="fill:black"/> <rect x="21" y="19" width="1" height="1" style="fill:black"/> <rect x="22" y="19" width="1" height="1" style="fill:black"/> <rect x="26" y="19" width="1" height="1" style="fill:black"/> <rect x="29" y="19" width="1" height="1" style="fill:black"/> <rect x="32" y="19" width="1" height="1" style="fill:black"/> <rect x="4" y="20" width="1" height="1" style="fill:black"/> <rect x="5" y="20" width="1" height="1" style="fill:black"/> <rect x="6" y="20" width="1" height="1" style="fill:black"/> <rect x="8" y="20" width="1" height="1" style="fill:black"/> <rect x="9" y="20" width="1" height="1" style="fill:black"/> <rect x="10" y="20" width="1" height="1" style="fill:black"/> <rect x="11" y="20" width="1" height="1" style="fill:black"/> <rect x="12" y="20" width="1" height="1" style="fill:black"/> <rect x="13" y="20" width="1" height="1" style="fill:black"/> <rect x="16" y="20" width="1" height="1" style="fill:black"/> <rect x="17" y="20" width="1" height="1" style="fill:black"/> <rect x="24" y="20" width="1" height="1" style="fill:black"/> <rect x="27" y="20" width="1" height="1" style="fill:black"/> <rect x="28" y="20" width="1" height="1" style="fill:black"/> <rect x="29" y="20" width="1" height="1" style="fill:black"/> <rect x="31" y="20" width="1" height="1" style="fill:black"/> <rect x="32" y="20" width="1" height="1" style="fill:black"/> <rect x="7" y="21" width="1" height="1" style="fill:black"/> <rect x="8" y="21" width="1" height="1" style="fill:black"/> <rect x="9" y="21" width="1" height="1" style="fill:black"/> <rect x="14" y="21" width="1" height="1" style="fill:black"/> <rect x="16" y="21" width="1" height="1" style="fill:black"/> <rect x="17" y="21" width="1" height="1" style="fill:black"/> <rect x="18" y="21" width="1" height="1" style="fill:black"/> <rect x="19" y="21" width="1" height="1" style="fill:black"/> <rect x="20" y="21" width="1" height="1" style="fill:black"/> <rect x="21" y="21" width="1" height="1" style="fill:black"/> <rect x="22" y="21" width="1" height="1" style="fill:black"/> <rect x="24" y="21" width="1" height="1" style="fill:black"/> <rect x="27" y="21" width="1" height="1" style="fill:black"/> <rect x="28" y="21" width="1" height="1" style="fill:black"/> <rect x="29" y="21" width="1" height="1" style="fill:black"/> <rect x="31" y="21" width="1" height="1" style="fill:black"/> <rect x="4" y="22" width="1" height="1" style="fill:black"/> <rect x="5" y="22" width="1" height="1" style="fill:black"/> <rect x="8" y="22" width="1" height="1" style="fill:black"/> <rect x="10" y="22" width="1" height="1" style="fill:black"/> <rect x="13" y="22" width="1" height="1" style="fill:black"/> <rect x="14" y="22" width="1" height="1" style="fill:black"/> <rect x="15" y="22" width="1" height="1" style="fill:black"/> <rect x="18" y="22" width="1" height="1" style="fill:black"/> <rect x="22" y="22" width="1" height="1" style="fill:black"/> <rect x="24" y="22" width="1" height="1" style="fill:black"/> <rect x="25" y="22" width="1" height="1" style="fill:black"/> <rect x="26" y="22" width="1" height="1" style="fill:black"/> <rect x="27" y="22" width="1" height="1" style="fill:black"/> <rect x="30" y="22" width="1" height="1" style="fill:black"/> <rect x="32" y="22" width="1" height="1" style="fill:black"/> <rect x="8" y="23" width="1" height="1" style="fill:black"/> <rect x="13" y="23" width="1" height="1" style="fill:black"/> <rect x="14" y="23" width="1" height="1" style="fill:black"/> <rect x="15" y="23" width="1" height="1" style="fill:black"/> <rect x="16" y="23" width="1" height="1" style="fill:black"/> <rect x="18" y="23" width="1" height="1" style="fill:black"/> <rect x="20" y="23" width="1" height="1" style="fill:black"/> <rect x="21" y="23" width="1" height="1" style="fill:black"/> <rect x="22" y="23" width="1" height="1" style="fill:black"/> <rect x="23" y="23" width="1" height="1" style="fill:black"/> <rect x="24" y="23" width="1" height="1" style="fill:black"/> <rect x="25" y="23" width="1" height="1" style="fill:black"/> <rect x="27" y="23" width="1" height="1" style="fill:black"/> <rect x="28" y="23" width="1" height="1" style="fill:black"/> <rect x="29" y="23" width="1" height="1" style="fill:black"/> <rect x="4" y="24" width="1" height="1" style="fill:black"/> <rect x="5" y="24" width="1" height="1" style="fill:black"/> <rect x="7" y="24" width="1" height="1" style="fill:black"/> <rect x="8" y="24" width="1" height="1" style="fill:black"/> <rect x="9" y="24" width="1" height="1" style="fill:black"/> <rect x="10" y="24" width="1" height="1" style="fill:black"/> <rect x="11" y="24" width="1" height="1" style="fill:black"/> <rect x="13" y="24" width="1" height="1" style="fill:black"/> <rect x="16" y="24" width="1" height="1" style="fill:black"/> <rect x="18" y="24" width="1" height="1" style="fill:black"/> <rect x="19" y="24" width="1" height="1" style="fill:black"/> <rect x="20" y="24" width="1" height="1" style="fill:black"/> <rect x="24" y="24" width="1" height="1" style="fill:black"/> <rect x="25" y="24" width="1" height="1" style="fill:black"/> <rect x="26" y="24" width="1" height="1" style="fill:black"/> <rect x="27" y="24" width="1" height="1" style="fill:black"/> <rect x="28" y="24" width="1" height="1" style="fill:black"/> <rect x="29" y="24" width="1" height="1" style="fill:black"/> <rect x="31" y="24" width="1" height="1" style="fill:black"/> <rect x="32" y="24" width="1" height="1" style="fill:black"/> <rect x="12" y="25" width="1" height="1" style="fill:black"/> <rect x="13" y="25" width="1" height="1" style="fill:black"/> <rect x="15" y="25" width="1" height="1" style="fill:black"/> <rect x="16" y="25" width="1" height="1" style="fill:black"/> <rect x="17" y="25" width="1" height="1" style="fill:black"/> <rect x="18" y="25" width="1" height="1" style="fill:black"/> <rect x="21" y="25" width="1" height="1" style="fill:black"/> <rect x="24" y="25" width="1" height="1" style="fill:black"/> <rect x="28" y="25" width="1" height="1" style="fill:black"/> <rect x="30" y="25" width="1" height="1" style="fill:black"/> <rect x="32" y="25" width="1" height="1" style="fill:black"/> <rect x="4" y="26" width="1" height="1" style="fill:black"/> <rect x="5" y="26" width="1" height="1" style="fill:black"/> <rect x="6" y="26" width="1" height="1" style="fill:black"/> <rect x="7" y="26" width="1" height="1" style="fill:black"/> <rect x="8" y="26" width="1" height="1" style="fill:black"/> <rect x="9" y="26" width="1" height="1" style="fill:black"/> <rect x="10" y="26" width="1" height="1" style="fill:black"/> <rect x="12" y="26" width="1" height="1" style="fill:black"/> <rect x="15" y="26" width="1" height="1" style="fill:black"/> <rect x="17" y="26" width="1" height="1" style="fill:black"/> <rect x="18" y="26" width="1" height="1" style="fill:black"/> <rect x="19" y="26" width="1" height="1" style="fill:black"/> <rect x="23" y="26" width="1" height="1" style="fill:black"/> <rect x="24" y="26" width="1" height="1" style="fill:black"/> <rect x="26" y="26" width="1" height="1" style="fill:black"/> <rect x="28" y="26" width="1" height="1" style="fill:black"/> <rect x="32" y="26" width="1" height="1" style="fill:black"/> <rect x="4" y="27" width="1" height="1" style="fill:black"/> <rect x="10" y="27" width="1" height="1" style="fill:black"/> <rect x="12" y="27" width="1" height="1" style="fill:black"/> <rect x="13" y="27" width="1" height="1" style="fill:black"/> <rect x="14" y="27" width="1" height="1" style="fill:black"/> <rect x="16" y="27" width="1" height="1" style="fill:black"/> <rect x="17" y="27" width="1" height="1" style="fill:black"/> <rect x="19" y="27" width="1" height="1" style="fill:black"/> <rect x="22" y="27" width="1" height="1" style="fill:black"/> <rect x="24" y="27" width="1" height="1" style="fill:black"/> <rect x="28" y="27" width="1" height="1" style="fill:black"/> <rect x="29" y="27" width="1" height="1" style="fill:black"/> <rect x="31" y="27" width="1" height="1" style="fill:black"/> <rect x="4" y="28" width="1" height="1" style="fill:black"/> <rect x="6" y="28" width="1" height="1" style="fill:black"/> <rect x="7" y="28" width="1" height="1" style="fill:black"/> <rect x="8" y="28" width="1" height="1" style="fill:black"/> <rect x="10" y="28" width="1" height="1" style="fill:black"/> <rect x="14" y="28" width="1" height="1" style="fill:black"/> <rect x="21" y="28" width="1" height="1" style="fill:black"/> <rect x="23" y="28" width="1" height="1" style="fill:black"/> <rect x="24" y="28" width="1" height="1" style="fill:black"/> <rect x="25" y="28" width="1" height="1" style="fill:black"/> <rect x="26" y="28" width="1" height="1" style="fill:black"/> <rect x="27" y="28" width="1" height="1" style="fill:black"/> <rect x="28" y="28" width="1" height="1" style="fill:black"/> <rect x="29" y="28" width="1" height="1" style="fill:black"/> <rect x="31" y="28" width="1" height="1" style="fill:black"/> <rect x="32" y="28" width="1" height="1" style="fill:black"/> <rect x="4" y="29" width="1" height="1" style="fill:black"/> <rect x="6" y="29" width="1" height="1" style="fill:black"/> <rect x="7" y="29" width="1" height="1" style="fill:black"/> <rect x="8" y="29" width="1" height="1" style="fill:black"/> <rect x="10" y="29" width="1" height="1" style="fill:black"/> <rect x="13" y="29" width="1" height="1" style="fill:black"/> <rect x="14" y="29" width="1" height="1" style="fill:black"/> <rect x="15" y="29" width="1" height="1" style="fill:black"/> <rect x="16" y="29" width="1" height="1" style="fill:black"/> <rect x="17" y="29" width="1" height="1" style="fill:black"/> <rect x="18" y="29" width="1" height="1" style="fill:black"/> <rect x="19" y="29" width="1" height="1" style="fill:black"/> <rect x="21" y="29" width="1" height="1" style="fill:black"/> <rect x="24" y="29" width="1" height="1" style="fill:black"/> <rect x="25" y="29" width="1" height="1" style="fill:black"/> <rect x="27" y="29" width="1" height="1" style="fill:black"/> <rect x="28" y="29" width="1" height="1" style="fill:black"/> <rect x="29" y="29" width="1" height="1" style="fill:black"/> <rect x="30" y="29" width="1" height="1" style="fill:black"/> <rect x="31" y="29" width="1" height="1" style="fill:black"/> <rect x="4" y="30" width="1" height="1" style="fill:black"/> <rect x="6" y="30" width="1" height="1" style="fill:black"/> <rect x="7" y="30" width="1" height="1" style="fill:black"/> <rect x="8" y="30" width="1" height="1" style="fill:black"/> <rect x="10" y="30" width="1" height="1" style="fill:black"/> <rect x="12" y="30" width="1" height="1" style="fill:black"/> <rect x="19" y="30" width="1" height="1" style="fill:black"/> <rect x="20" y="30" width="1" height="1" style="fill:black"/> <rect x="22" y="30" width="1" height="1" style="fill:black"/> <rect x="25" y="30" width="1" height="1" style="fill:black"/> <rect x="28" y="30" width="1" height="1" style="fill:black"/> <rect x="29" y="30" width="1" height="1" style="fill:black"/> <rect x="30" y="30" width="1" height="1" style="fill:black"/> <rect x="31" y="30" width="1" height="1" style="fill:black"/> <rect x="32" y="30" width="1" height="1" style="fill:black"/> <rect x="4" y="31" width="1" height="1" style="fill:black"/> <rect x="10" y="31" width="1" height="1" style="fill:black"/> <rect x="14" y="31" width="1" height="1" style="fill:black"/> <rect x="15" y="31" width="1" height="1" style="fill:black"/> <rect x="20" y="31" width="1" height="1" style="fill:black"/> <rect x="23" y="31" width="1" height="1" style="fill:black"/> <rect x="27" y="31" width="1" height="1" style="fill:black"/> <rect x="4" y="32" width="1" height="1" style="fill:black"/> <rect x="5" y="32" width="1" height="1" style="fill:black"/> <rect x="6" y="32" width="1" height="1" style="fill:black"/> <rect x="7" y="32" width="1" height="1" style="fill:black"/> <rect x="8" y="32" width="1" height="1" style="fill:black"/> <rect x="9" y="32" width="1" height="1" style="fill:black"/> <rect x="10" y="32" width="1" height="1" style="fill:black"/> <rect x="13" y="32" width="1" height="1" style="fill:black"/> <rect x="15" y="32" width="1" height="1" style="fill:black"/> <rect x="16" y="32" width="1" height="1" style="fill:black"/> <rect x="18" y="32" width="1" height="1" style="fill:black"/> <rect x="21" y="32" width="1" height="1" style="fill:black"/> <rect x="23" y="32" width="1" height="1" style="fill:black"/> <rect x="24" y="32" width="1" height="1" style="fill:black"/> <rect x="26" y="32" width="1" height="1" style="fill:black"/> <rect x="27" y="32" width="1" height="1" style="fill:black"/> <rect x="29" y="32" width="1" height="1" style="fill:black"/> <rect x="30" y="32" width="1" height="1" style="fill:black"/> <rect x="32" y="32" width="1" height="1" style="fill:black"/></svg>