<svg xmlns="http://www.w3.org/2000/svg" version="1.1">
    <rect x="0" y="0" width="45" height="45" style="fill:white"/> <rect x="4" y="4" width="1" height="1" style="fill:black"/> <rect x="5" y="4" width="1" height="1" style="fill:black"/> <rect x="6" y="4" width="1" height="1" style="fill:black"/> <rect x="7" y="4" width="1" height="1" style="fill:black"/> <rect x="8" y="4" width="1" height="1" style="fill:black"/> <rect x="9" y="4" width="1" height="1" style="fill:black"/> <rect x="10" y="4" width="1" height="1" style="fill:black"/> <rect x="13" y="4" width="1" height="1" style="fill:black"/> <rect x="14" y="4" width="1" height="1" style="fill:black"/> <rect x="15" y="4" width="1" height="1" style="fill:black"/> <rect x="18" y="4" width="1" height="1" style="fill:black"/> <rect x="20" y="4" width="1" height="1" style="fill:black"/> <rect x="27" y="4" width="1" height="1" style="fill:black"/> <rect x="29" y="4" width="1" height="1" style="fill:black"/> <rect x="30" y="4" width="1" height="1" style="fill:black"/> <rect x="31" y="4" width="1" height="1" style="fill:black"/> <rect x="32" y="4" width="1" height="1" style="fill:black"/> <rect x="34" y="4" width="1" height="1" style="fill:black"/> <rect x="35" y="4" width="1" height="1" style="fill:black"/> <rect x="36" y="4" width="1" height="1" style="fill:black"/> <rect x="37" y="4" width="1" height="1" style="fill:black"/> <rect x="38" y="4" width="1" height="1" style="fill:black"/> <rect x="39" y="4" width="1" height="1" style="fill:black"/> <rect x="40" y="4" width="1" height="1" style="fill:black"/> <rect x="4" y="5" width="1" height="1" style="fill:black"/> <rect x="10" y="5" width="1" height="1" style="fill:black"/> <rect x="12" y="5" width="1" height="1" style="fill:black"/> <rect x="15" y="5" width="1" height="1" style="fill:black"/> <rect x="16" y="5" width="1" height="1" style="fill:black"/> <rect x="17" y="5" width="1" height="1" style="fill:black"/> <rect x="19" y="5" width="1" height="1" style="fill:black"/> <rect x="23" y="5" width="1" height="1" style="fill:black"/> <rect x="24" y="5" width="1" height="1" style="fill:black"/> <rect x="28" y="5" width="1" height="1" style="fill:black"/> <rect x="29" y="5" width="1" height="1" style="fill:black"/> <rect x="30" y="5" width="1" height="1" style="fill:black"/> <rect x="34" y="5" width="1" height="1" style="fill:black"/> <rect x="40" y="5" width="1" height="1" style="fill:black"/> <rect x="4" y="6" width="1" height="1" style="fill:black"/> <rect x="6" y="6" width="1" height="1" style="fill:black"/> <rect x="7" y="6" width="1" height="1" style="fill:black"/> <rect x="8" y="6" width="1" height="1" style="fill:black"/> <rect x="10" y="6" width="1" height="1" style="fill:black"/> <rect x="13" y="6" width="1" height="1" style="fill:black"/> <rect x="16" y="6" width="1" height="1" style="fill:black"/> <rect x="17" y="6" width="1" height="1" style="fill:black"/> <rect x="19" y="6" width="1" height="1" style="fill:black"/> <rect x="21" y="6" width="1" height="1" style="fill:black"/> <rect x="22" y="6" width="1" height="1" style="fill:black"/> <rect x="24" y="6" width="1" height="1" style="fill:black"/> <rect x="27" y="6" width="1" height="1" style="fill:black"/> <rect x="28" y="6" width="1" height="1" style="fill:black"/> <rect x="30" y="6" width="1" height="1" style="fill:black"/> <rect x="31" y="6" width="1" height="1" style="fill:black"/> <rect x="34" y="6" width="1" height="1" style="fill:black"/> <rect x="36" y="6" width="1" height="1" style="fill:black"/> <rect x="37" y="6" width="1" height="1" style="fill:black"/> <rect x="38" y="6" width="1" height="1" style="fill:black"/> <rect x="40" y="6" width="1" height="1" style="fill:black"/> <rect x="4" y="7" width="1" height="1" style="fill:black"/> <rect x="6" y="7" width="1" height="1" style="fill:black"/> <rect x="7" y="7" width="1" height="1" style="fill:black"/> <rect x="8" y="7" width="1" height="1" style="fill:black"/> <rect x="10" y="7" width="1" height="1" style="fill:black"/> <rect x="13" y="7" width="1" height="1" style="fill:black"/> <rect x="14" y="7" width="1" height="1" style="fill:black"/> <rect x="15" y="7" width="1" height="1" style="fill:black"/> <rect x="17" y="7" width="1" height="1" style="fill:black"/> <rect x="24" y="7" width="1" height="1" style="fill:black"/> <rect x="25" y="7" width="1" height="1" style="fill:black"/> <rect x="26" y="7" width="1" height="1" style="fill:black"/> <rect x="29" y="7" width="1" height="1" style="fill:black"/> <rect x="30" y="7" width="1" height="1" style="fill:black"/> <rect x="31" y="7" width="1" height="1" style="fill:black"/> <rect x="34" y="7" width="1" height="1" style="fill:black"/> <rect x="36" y="7" width="1" height="1" style="fill:black"/> <rect x="37" y="7" width="1" height="1" style="fill:black"/> <rect x="38" y="7" width="1" height="1" style="fill:black"/> <rect x="40" y="7" width="1" height="1" style="fill:black"/> <rect x="4" y="8" width="1" height="1" style="fill:black"/> <rect x="6" y="8" width="1" height="1" style="fill:black"/> <rect x="7" y="8" width="1" height="1" style="fill:black"/> <rect x="8" y="8" width="1" height="1" style="fill:black"/> <rect x="10" y="8" width="1" height="1" style="fill:black"/> <rect x="13" y="8" width="1" height="1" style="fill:black"/> <rect x="17" y="8" width="1" height="1" style="fill:black"/> <rect x="18" y="8" width="1" height="1" style="fill:black"/> <rect x="20" y="8" width="1" height="1" style="fill:black"/> <rect x="21" y="8" width="1" height="1" style="fill:black"/> <rect x="29" y="8" width="1" height="1" style="fill:black"/> <rect x="30" y="8" width="1" height="1" style="fill:black"/> <rect x="32" y="8" width="1" height="1" style="fill:black"/> <rect x="34" y="8" width="1" height="1" style="fill:black"/> <rect x="36" y="8" width="1" height="1" style="fill:black"/> <rect x="37" y="8" width="1" height="1" style="fill:black"/> <rect x="38" y="8" width="1" height="1" style="fill:black"/> <rect x="40" y="8" width="1" height="1" style="fill:black"/> <rect x="4" y="9" width="1" height="1" style="fill:black"/> <rect x="10" y="9" width="1" height="1" style="fill:black"/> <rect x="12" y="9" width="1" height="1" style="fill:black"/> <rect x="13" y="9" width="1" height="1" style="fill:black"/> <rect x="15" y="9" width="1" height="1" style="fill:black"/> <rect x="16" y="9" width="1" height="1" style="fill:black"/> <rect x="17" y="9" width="1" height="1" style="fill:black"/> <rect x="27" y="9" width="1" height="1" style="fill:black"/> <rect x="29" y="9" width="1" height="1" style="fill:black"/> <rect x="34" y="9" width="1" height="1" style="fill:black"/> <rect x="40" y="9" width="1" height="1" style="fill:black"/> <rect x="4" y="10" width="1" height="1" style="fill:black"/> <rect x="5" y="10" width="1" height="1" style="fill:black"/> <rect x="6" y="10" width="1" height="1" style="fill:black"/> <rect x="7" y="10" width="1" height="1" style="fill:black"/> <rect x="8" y="10" width="1" height="1" style="fill:black"/> <rect x="9" y="10" width="1" height="1" style="fill:black"/> <rect x="10" y="10" width="1" height="1" style="fill:black"/> <rect x="12" y="10" width="1" height="1" style="fill:black"/> <rect x="14" y="10" width="1" height="1" style="fill:black"/> <rect x="16" y="10" width="1" height="1" style="fill:black"/> <rect x="18" y="10" width="1" height="1" style="fill:black"/> <rect x="20" y="10" width="1" height="1" style="fill:black"/> <rect x="22" y="10" width="1" height="1" style="fill:black"/> <rect x="24" y="10" width="1" height="1" style="fill:black"/> <rect x="26" y="10" width="1" height="1" style="fill:black"/> <rect x="28" y="10" width="1" height="1" style="fill:black"/> <rect x="30" y="10" width="1" height="1" style="fill:black"/> <rect x="32" y="10" width="1" height="1" style="fill:black"/> <rect x="34" y="10" width="1" height="1" style="fill:black"/> <rect x="35" y="10" width="1" height="1" style="fill:black"/> <rect x="36" y="10" width="1" height="1" style="fill:black"/> <rect x="37" y="10" width="1" height="1" style="fill:black"/> <rect x="38" y="10" width="1" height="1" style="fill:black"/> <rect x="39" y="10" width="1" height="1" style="fill:black"/> <rect x="40" y="10" width="1" height="1" style="fill:black"/> <rect x="12" y="11" width="1" height="1" style="fill:black"/> <rect x="13" y="11" width="1" height="1" style="fill:black"/> <rect x="15" y="11" width="1" height="1" style="fill:black"/> <rect x="16" y="11" width="1" height="1" style="fill:black"/> <rect x="18" y="11" width="1" height="1" style="fill:black"/> <rect x="20" y="11" width="1" height="1" style="fill:black"/> <rect x="24" y="11" width="1" height="1" style="fill:black"/> <rect x="26" y="11" width="1" height="1" style="fill:black"/> <rect x="27" y="11" width="1" height="1" style="fill:black"/> <rect x="28" y="11" width="1" height="1" style="fill:black"/> <rect x="31" y="11" width="1" height="1" style="fill:black"/> <rect x="32" y="11" width="1" height="1" style="fill:black"/> <rect x="8" y="12" width="1" height="1" style="fill:black"/> <rect x="9" y="12" width="1" height="1" style="fill:black"/> <rect x="10" y="12" width="1" height="1" style="fill:black"/> <rect x="11" y="12" width="1" height="1" style="fill:black"/> <rect x="14" y="12" width="1" height="1" style="fill:black"/> <rect x="20" y="12" width="1" height="1" style="fill:black"/> <rect x="28" y="12" width="1" height="1" style="fill:black"/> <rect x="34" y="12" width="1" height="1" style="fill:black"/> <rect x="35" y="12" width="1" height="1" style="fill:black"/> <rect x="39" y="12" width="1" height="1" style="fill:black"/> <rect x="5" y="13" width="1" height="1" style="fill:black"/> <rect x="7" y="13" width="1" height="1" style="fill:black"/> <rect x="8" y="13" width="1" height="1" style="fill:black"/> <rect x="12" y="13" width="1" height="1" style="fill:black"/> <rect x="15" y="13" width="1" height="1" style="fill:black"/> <rect x="17" y="13" width="1" height="1" style="fill:black"/> <rect x="18" y="13" width="1" height="1" style="fill:black"/> <rect x="19" y="13" width="1" height="1" style="fill:black"/> <rect x="20" y="13" width="1" height="1" style="fill:black"/> <rect x="22" y="13" width="1" height="1" style="fill:black"/> <rect x="23" y="13" width="1" height="1" style="fill:black"/> <rect x="24" y="13" width="1" height="1" style="fill:black"/> <rect x="25" y="13" width="1" height="1" style="fill:black"/> <rect x="26" y="13" width="1" height="1" style="fill:black"/> <rect x="28" y="13" width="1" height="1" style="fill:black"/> <rect x="29" y="13" width="1" height="1" style="fill:black"/> <rect x="30" y="13" width="1" height="1" style="fill:black"/> <rect x="31" y="13" width="1" height="1" style="fill:black"/> <rect x="32" y="13" width="1" height="1" style="fill:black"/> <rect x="36" y="13" width="1" height="1" style="fill:black"/> <rect x="38" y="13" width="1" height="1" style="fill:black"/> <rect x="4" y="14" width="1" height="1" style="fill:black"/> <rect x="5" y="14" width="1" height="1" style="fill:black"/> <rect x="6" y="14" width="1" height="1" style="fill:black"/> <rect x="8" y="14" width="1" height="1" style="fill:black"/> <rect x="9" y="14" width="1" height="1" style="fill:black"/> <rect x="10" y="14" width="1" height="1" style="fill:black"/> <rect x="11" y="14" width="1" height="1" style="fill:black"/> <rect x="16" y="14" width="1" height="1" style="fill:black"/> <rect x="17" y="14" width="1" height="1" style="fill:black"/> <rect x="19" y="14" width="1" height="1" style="fill:black"/> <rect x="20" y="14" width="1" height="1" style="fill:black"/> <rect x="21" y="14" width="1" height="1" style="fill:black"/> <rect x="22" y="14" width="1" height="1" style="fill:black"/> <rect x="25" y="14" width="1" height="1" style="fill:black"/> <rect x="27" y="14" width="1" height="1" style="fill:black"/> <rect x="29" y="14" width="1" height="1" style="fill:black"/> <rect x="31" y="14" width="1" height="1" style="fill:black"/> <rect x="38" y="14" width="1" height="1" style="fill:black"/> <rect x="39" y="14" width="1" height="1" style="fill:black"/> <rect x="5" y="15" width="1" height="1" style="fill:black"/> <rect x="8" y="15" width="1" height="1" style="fill:black"/> <rect x="11" y="15" width="1" height="1" style="fill:black"/> <rect x="14" y="15" width="1" height="1" style="fill:black"/> <rect x="17" y="15" width="1" height="1" style="fill:black"/> <rect x="18" y="15" width="1" height="1" style="fill:black"/> <rect x="19" y="15" width="1" height="1" style="fill:black"/> <rect x="21" y="15" width="1" height="1" style="fill:black"/> <rect x="25" y="15" width="1" height="1" style="fill:black"/> <rect x="26" y="15" width="1" height="1" style="fill:black"/> <rect x="30" y="15" width="1" height="1" style="fill:black"/> <rect x="31" y="15" width="1" height="1" style="fill:black"/> <rect x="32" y="15" width="1" height="1" style="fill:black"/> <rect x="33" y="15" width="1" height="1" style="fill:black"/> <rect x="36" y="15" width="1" height="1" style="fill:black"/> <rect x="38" y="15" width="1" height="1" style="fill:black"/> <rect x="39" y="15" width="1" height="1" style="fill:black"/> <rect x="4" y="16" width="1" height="1" style="fill:black"/> <rect x="5" y="16" width="1" height="1" style="fill:black"/> <rect x="6" y="16" width="1" height="1" style="fill:black"/> <rect x="8" y="16" width="1" height="1" style="fill:black"/> <rect x="9" y="16" width="1" height="1" style="fill:black"/> <rect x="10" y="16" width="1" height="1" style="fill:black"/> <rect x="12" y="16" width="1" height="1" style="fill:black"/> <rect x="17" y="16" width="1" height="1" style="fill:black"/> <rect x="18" y="16" width="1" height="1" style="fill:black"/> <rect x="21" y="16" width="1" height="1" style="fill:black"/> <rect x="24" y="16" width="1" height="1" style="fill:black"/> <rect x="25" y="16" width="1" height="1" style="fill:black"/> <rect x="27" y="16" width="1" height="1" style="fill:black"/> <rect x="33" y="16" width="1" height="1" style="fill:black"/> <rect x="34" y="16" width="1" height="1" style="fill:black"/> <rect x="37" y="16" width="1" height="1" style="fill:black"/> <rect x="38" y="16" width="1" height="1" style="fill:black"/> <rect x="40" y="16" width="1" height="1" style="fill:black"/> <rect x="4" y="17" width="1" height="1" style="fill:black"/> <rect x="6" y="17" width="1" height="1" style="fill:black"/> <rect x="8" y="17" width="1" height="1" style="fill:black"/> <rect x="12" y="17" width="1" height="1" style="fill:black"/> <rect x="13" y="17" width="1" height="1" style="fill:black"/> <rect x="14" y="17" width="1" height="1" style="fill:black"/> <rect x="16" y="17" width="1" height="1" style="fill:black"/> <rect x="18" y="17" width="1" height="1" style="fill:black"/> <rect x="22" y="17" width="1" height="1" style="fill:black"/> <rect x="23" y="17" width="1" height="1" style="fill:black"/> <rect x="25" y="17" width="1" height="1" style="fill:black"/> <rect x="31" y="17" width="1" height="1" style="fill:black"/> <rect x="32" y="17" width="1" height="1" style="fill:black"/> <rect x="36" y="17" width="1" height="1" style="fill:black"/> <rect x="37" y="17" width="1" height="1" style="fill:black"/> <rect x="6" y="18" width="1" height="1" style="fill:black"/> <rect x="9" y="18" width="1" height="1" style="fill:black"/> <rect x="10" y="18" width="1" height="1" style="fill:black"/> <rect x="13" y="18" width="1" height="1" style="fill:black"/> <rect x="15" y="18" width="1" height="1" style="fill:black"/> <rect x="16" y="18" width="1" height="1" style="fill:black"/> <rect x="18" y="18" width="1" height="1" style="fill:black"/> <rect x="19" y="18" width="1" height="1" style="fill:black"/> <rect x="25" y="18" width="1" height="1" style="fill:black"/> <rect x="28" y="18" width="1" height="1" style="fill:black"/> <rect x="31" y="18" width="1" height="1" style="fill:black"/> <rect x="34" y="18" width="1" height="1" style="fill:black"/> <rect x="36" y="18" width="1" height="1" style="fill:black"/> <rect x="38" y="18" width="1" height="1" style="fill:black"/> <rect x="4" y="19" width="1" height="1" style="fill:black"/> <rect x="5" y="19" width="1" height="1" style="fill:black"/> <rect x="6" y="19" width="1" height="1" style="fill:black"/> <rect x="7" y="19" width="1" height="1" style="fill:black"/> <rect x="8" y="19" width="1" height="1" style="fill:black"/> <rect x="9" y="19" width="1" height="1" style="fill:black"/> <rect x="11" y="19" width="1" height="1" style="fill:black"/> <rect x="14" y="19" width="1" height="1" style="fill:black"/> <rect x="16" y="19" width="1" height="1" style="fill:black"/> <rect x="20" y="19" width="1" height="1" style="fill:black"/> <rect x="22" y="19" width="1" height="1" style="fill:black"/> <rect x="23" y="19" width="1" height="1" style="fill:black"/> <rect x="24" y="19" width="1" height="1" style="fill:black"/> <rect x="26" y="19" width="1" height="1" style="fill:black"/> <rect x="27" y="19" width="1" height="1" style="fill:black"/> <rect x="28" y="19" width="1" height="1" style="fill:black"/> <rect x="31" y="19" width="1" height="1" style="fill:black"/> <rect x="33" y="19" width="1" height="1" style="fill:black"/> <rect x="34" y="19" width="1" height="1" style="fill:black"/> <rect x="38" y="19" width="1" height="1" style="fill:black"/> <rect x="39" y="19" width="1" height="1" style="fill:black"/> <rect x="4" y="20" width="1" height="1" style="fill:black"/> <rect x="5" y="20" width="1" height="1" style="fill:black"/> <rect x="6" y="20" width="1" height="1" style="fill:black"/> <rect x="8" y="20" width="1" height="1" style="fill:black"/> <rect x="10" y="20" width="1" height="1" style="fill:black"/> <rect x="11" y="20" width="1" height="1" style="fill:black"/> <rect x="12" y="20" width="1" height="1" style="fill:black"/> <rect x="13" y="20" width="1" height="1" style="fill:black"/> <rect x="17" y="20" width="1" height="1" style="fill:black"/> <rect x="20" y="20" width="1" height="1" style="fill:black"/> <rect x="21" y="20" width="1" height="1" style="fill:black"/> <rect x="23" y="20" width="1" height="1" style="fill:black"/> <rect x="24" y="20" width="1" height="1" style="fill:black"/> <rect x="25" y="20" width="1" height="1" style="fill:black"/> <rect x="26" y="20" width="1" height="1" style="fill:black"/> <rect x="28" y="20" width="1" height="1" style="fill:black"/> <rect x="31" y="20" width="1" height="1" style="fill:black"/> <rect x="32" y="20" width="1" height="1" style="fill:black"/> <rect x="33" y="20" width="1" height="1" style="fill:black"/> <rect x="34" y="20" width="1" height="1" style="fill:black"/> <rect x="35" y="20" width="1" height="1" style="fill:black"/> <rect x="36" y="20" width="1" height="1" style="fill:black"/> <rect x="38" y="20" width="1" height="1" style="fill:black"/> <rect x="39" y="20" width="1" height="1" style="fill:black"/> <rect x="40" y="20" width="1" height="1" style="fill:black"/> <rect x="4" y="21" width="1" height="1" style="fill:black"/> <rect x="6" y="21" width="1" height="1" style="fill:black"/> <rect x="7" y="21" width="1" height="1" style="fill:black"/> <rect x="9" y="21" width="1" height="1" style="fill:black"/> <rect x="12" y="21" width="1" height="1" style="fill:black"/> <rect x="13" y="21" width="1" height="1" style="fill:black"/> <rect x="17" y="21" width="1" height="1" style="fill:black"/> <rect x="18" y="21" width="1" height="1" style="fill:black"/> <rect x="19" y="21" width="1" height="1" style="fill:black"/> <rect x="20" y="21" width="1" height="1" style="fill:black"/> <rect x="21" y="21" width="1" height="1" style="fill:black"/> <rect x="22" y="21" width="1" height="1" style="fill:black"/> <rect x="23" y="21" width="1" height="1" style="fill:black"/> <rect x="24" y="21" width="1" height="1" style="fill:black"/> <rect x="28" y="21" width="1" height="1" style="fill:black"/> <rect x="31" y="21" width="1" height="1" style="fill:black"/> <rect x="32" y="21" width="1" height="1" style="fill:black"/> <rect x="36" y="21" width="1" height="1" style="fill:black"/> <rect x="37" y="21" width="1" height="1" style="fill:black"/> <rect x="39" y="21" width="1" height="1" style="fill:black"/> <rect x="40" y="21" width="1" height="1" style="fill:black"/> <rect x="4" y="22" width="1" height="1" style="fill:black"/> <rect x="5" y="22" width="1" height="1" style="fill:black"/> <rect x="6" y="22" width="1" height="1" style="fill:black"/> <rect x="10" y="22" width="1" height="1" style="fill:black"/> <rect x="13" y="22" width="1" height="1" style="fill:black"/> <rect x="15" y="22" width="1" height="1" style="fill:black"/> <rect x="16" y="22" width="1" height="1" style="fill:black"/> <rect x="18" y="22" width="1" height="1" style="fill:black"/> <rect x="19" y="22" width="1" height="1" style="fill:black"/> <rect x="21" y="22" width="1" height="1" style="fill:black"/> <rect x="22" y="22" width="1" height="1" style="fill:black"/> <rect x="28" y="22" width="1" height="1" style="fill:black"/> <rect x="29" y="22" width="1" height="1" style="fill:black"/> <rect x="30" y="22" width="1" height="1" style="fill:black"/> <rect x="31" y="22" width="1" height="1" style="fill:black"/> <rect x="32" y="22" width="1" height="1" style="fill:black"/> <rect x="35" y="22" width="1" height="1" style="fill:black"/> <rect x="38" y="22" width="1" height="1" style="fill:black"/> <rect x="4" y="23" width="1" height="1" style="fill:black"/> <rect x="6" y="23" width="1" height="1" style="fill:black"/> <rect x="12" y="23" width="1" height="1" style="fill:black"/> <rect x="13" y="23" width="1" height="1" style="fill:black"/> <rect x="14" y="23" width="1" height="1" style="fill:black"/> <rect x="16" y="23" width="1" height="1" style="fill:black"/> <rect x="20" y="23" width="1" height="1" style="fill:black"/> <rect x="21" y="23" width="1" height="1" style="fill:black"/> <rect x="22" y="23" width="1" height="1" style="fill:black"/> <rect x="24" y="23" width="1" height="1" style="fill:black"/> <rect x="25" y="23" width="1" height="1" style="fill:black"/> <rect x="32" y="23" width="1" height="1" style="fill:black"/> <rect x="36" y="23" width="1" height="1" style="fill:black"/> <rect x="38" y="23" width="1" height="1" style="fill:black"/> <rect x="39" y="23" width="1" height="1" style="fill:black"/> <rect x="40" y="23" width="1" height="1" style="fill:black"/> <rect x="4" y="24" width="1" height="1" style="fill:black"/> <rect x="6" y="24" width="1" height="1" style="fill:black"/> <rect x="7" y="24" width="1" height="1" style="fill:black"/> <rect x="9" y="24" width="1" height="1" style="fill:black"/> <rect x="10" y="24" width="1" height="1" style="fill:black"/> <rect x="11" y="24" width="1" height="1" style="fill:black"/> <rect x="13" y="24" width="1" height="1" style="fill:black"/> <rect x="15" y="24" width="1" height="1" style="fill:black"/> <rect x="18" y="24" width="1" height="1" style="fill:black"/> <rect x="19" y="24" width="1" height="1" style="fill:black"/> <rect x="20" y="24" width="1" height="1" style="fill:black"/> <rect x="21" y="24" width="1" height="1" style="fill:black"/> <rect x="23" y="24" width="1" height="1" style="fill:black"/> <rect x="25" y="24" width="1" height="1" style="fill:black"/> <rect x="26" y="24" width="1" height="1" style="fill:black"/> <rect x="30" y="24" width="1" height="1" style="fill:black"/> <rect x="33" y="24" width="1" height="1" style="fill:black"/> <rect x="34" y="24" width="1" height="1" style="fill:black"/> <rect x="37" y="24" width="1" height="1" style="fill:black"/> <rect x="38" y="24" width="1" height="1" style="fill:black"/> <rect x="5" y="25" width="1" height="1" style="fill:black"/> <rect x="6" y="25" width="1" height="1" style="fill:black"/> <rect x="8" y="25" width="1" height="1" style="fill:black"/> <rect x="9" y="25" width="1" height="1" style="fill:black"/> <rect x="13" y="25" width="1" height="1" style="fill:black"/> <rect x="15" y="25" width="1" height="1" style="fill:black"/> <rect x="16" y="25" width="1" height="1" style="fill:black"/> <rect x="17" y="25" width="1" height="1" style="fill:black"/> <rect x="20" y="25" width="1" height="1" style="fill:black"/> <rect x="22" y="25" width="1" height="1" style="fill:black"/> <rect x="23" y="25" width="1" height="1" style="fill:black"/> <rect x="29" y="25" width="1" height="1" style="fill:black"/> <rect x="30" y="25" width="1" height="1" style="fill:black"/> <rect x="31" y="25" width="1" height="1" style="fill:black"/> <rect x="36" y="25" width="1" height="1" style="fill:black"/> <rect x="5" y="26" width="1" height="1" style="fill:black"/> <rect x="6" y="26" width="1" height="1" style="fill:black"/> <rect x="7" y="26" width="1" height="1" style="fill:black"/> <rect x="8" y="26" width="1" height="1" style="fill:black"/> <rect x="10" y="26" width="1" height="1" style="fill:black"/> <rect x="12" y="26" width="1" height="1" style="fill:black"/> <rect x="16" y="26" width="1" height="1" style="fill:black"/> <rect x="17" y="26" width="1" height="1" style="fill:black"/> <rect x="18" y="26" width="1" height="1" style="fill:black"/> <rect x="21" y="26" width="1" height="1" style="fill:black"/> <rect x="23" y="26" width="1" height="1" style="fill:black"/> <rect x="24" y="26" width="1" height="1" style="fill:black"/> <rect x="25" y="26" width="1" height="1" style="fill:black"/> <rect x="26" y="26" width="1" height="1" style="fill:black"/> <rect x="27" y="26" width="1" height="1" style="fill:black"/> <rect x="30" y="26" width="1" height="1" style="fill:black"/> <rect x="31" y="26" width="1" height="1" style="fill:black"/> <rect x="32" y="26" width="1" height="1" style="fill:black"/> <rect x="33" y="26" width="1" height="1" style="fill:black"/> <rect x="35" y="26" width="1" height="1" style="fill:black"/> <rect x="37" y="26" width="1" height="1" style="fill:black"/> <rect x="38" y="26" width="1" height="1" style="fill:black"/> <rect x="7" y="27" width="1" height="1" style="fill:black"/> <rect x="8" y="27" width="1" height="1" style="fill:black"/> <rect x="9" y="27" width="1" height="1" style="fill:black"/> <rect x="13" y="27" width="1" height="1" style="fill:black"/> <rect x="15" y="27" width="1" height="1" style="fill:black"/> <rect x="16" y="27" width="1" height="1" style="fill:black"/> <rect x="20" y="27" width="1" height="1" style="fill:black"/> <rect x="22" y="27" width="1" height="1" style="fill:black"/> <rect x="23" y="27" width="1" height="1" style="fill:black"/> <rect x="26" y="27" width="1" height="1" style="fill:black"/> <rect x="27" y="27" width="1" height="1" style="fill:black"/> <rect x="30" y="27" width="1" height="1" style="fill:black"/> <rect x="31" y="27" width="1" height="1" style="fill:black"/> <rect x="33" y="27" width="1" height="1" style="fill:black"/> <rect x="34" y="27" width="1" height="1" style="fill:black"/> <rect x="36" y="27" width="1" height="1" style="fill:black"/> <rect x="38" y="27" width="1" height="1" style="fill:black"/> <rect x="40" y="27" width="1" height="1" style="fill:black"/> <rect x="5" y="28" width="1" height="1" style="fill:black"/> <rect x="6" y="28" width="1" height="1" style="fill:black"/> <rect x="9" y="28" width="1" height="1" style="fill:black"/> <rect x="10" y="28" width="1" height="1" style="fill:black"/> <rect x="11" y="28" width="1" height="1" style="fill:black"/> <rect x="18" y="28" width="1" height="1" style="fill:black"/> <rect x="19" y="28" width="1" height="1" style="fill:black"/> <rect x="20" y="28" width="1" height="1" style="fill:black"/> <rect x="22" y="28" width="1" height="1" style="fill:black"/> <rect x="23" y="28" width="1" height="1" style="fill:black"/> <rect x="24" y="28" width="1" height="1" style="fill:black"/> <rect x="25" y="28" width="1" height="1" style="fill:black"/> <rect x="27" y="28" width="1" height="1" style="fill:black"/> <rect x="29" y="28" width="1" height="1" style="fill:black"/> <rect x="30" y="28" width="1" height="1" style="fill:black"/> <rect x="33" y="28" width="1" height="1" style="fill:black"/> <rect x="34" y="28" width="1" height="1" style="fill:black"/> <rect x="35" y="28" width="1" height="1" style="fill:black"/> <rect x="39" y="28" width="1" height="1" style="fill:black"/> <rect x="40" y="28" width="1" height="1" style="fill:black"/> <rect x="4" y="29" width="1" height="1" style="fill:black"/> <rect x="8" y="29" width="1" height="1" style="fill:black"/> <rect x="11" y="29" width="1" height="1" style="fill:black"/> <rect x="14" y="29" width="1" height="1" style="fill:black"/> <rect x="16" y="29" width="1" height="1" style="fill:black"/> <rect x="17" y="29" width="1" height="1" style="fill:black"/> <rect x="21" y="29" width="1" height="1" style="fill:black"/> <rect x="25" y="29" width="1" height="1" style="fill:black"/> <rect x="28" y="29" width="1" height="1" style="fill:black"/> <rect x="29" y="29" width="1" height="1" style="fill:black"/> <rect x="30" y="29" width="1" height="1" style="fill:black"/> <rect x="31" y="29" width="1" height="1" style="fill:black"/> <rect x="32" y="29" width="1" height="1" style="fill:black"/> <rect x="36" y="29" width="1" height="1" style="fill:black"/> <rect x="37" y="29" width="1" height="1" style="fill:black"/> <rect x="39" y="29" width="1" height="1" style="fill:black"/> <rect x="9" y="30" width="1" height="1" style="fill:black"/> <rect x="10" y="30" width="1" height="1" style="fill:black"/> <rect x="11" y="30" width="1" height="1" style="fill:black"/> <rect x="13" y="30" width="1" height="1" style="fill:black"/> <rect x="14" y="30" width="1" height="1" style="fill:black"/> <rect x="15" y="30" width="1" height="1" style="fill:black"/> <rect x="16" y="30" width="1" height="1" style="fill:black"/> <rect x="17" y="30" width="1" height="1" style="fill:black"/> <rect x="18" y="30" width="1" height="1" style="fill:black"/> <rect x="19" y="30" width="1" height="1" style="fill:black"/> <rect x="20" y="30" width="1" height="1" style="fill:black"/> <rect x="24" y="30" width="1" height="1" style="fill:black"/> <rect x="26" y="30" width="1" height="1" style="fill:black"/> <rect x="27" y="30" width="1" height="1" style="fill:black"/> <rect x="28" y="30" width="1" height="1" style="fill:black"/> <rect x="30" y="30" width="1" height="1" style="fill:black"/> <rect x="31" y="30" width="1" height="1" style="fill:black"/> <rect x="32" y="30" width="1" height="1" style="fill:black"/> <rect x="35" y="30" width="1" height="1" style="fill:black"/> <rect x="36" y="30" width="1" height="1" style="fill:black"/> <rect x="37" y="30" width="1" height="1" style="fill:black"/> <rect x="38" y="30" width="1" height="1" style="fill:black"/> <rect x="6" y="31" width="1" height="1" style="fill:black"/> <rect x="7" y="31" width="1" height="1" style="fill:black"/> <rect x="11" y="31" width="1" height="1" style="fill:black"/> <rect x="12" y="31" width="1" height="1" style="fill:black"/> <rect x="18" y="31" width="1" height="1" style="fill:black"/> <rect x="20" y="31" width="1" height="1" style="fill:black"/> <rect x="23" y="31" width="1" height="1" style="fill:black"/> <rect x="27" y="31" width="1" height="1" style="fill:black"/> <rect x="31" y="31" width="1" height="1" style="fill:black"/> <rect x="38" y="31" width="1" height="1" style="fill:black"/> <rect x="40" y="31" width="1" height="1" style="fill:black"/> <rect x="4" y="32" width="1" height="1" style="fill:black"/> <rect x="5" y="32" width="1" height="1" style="fill:black"/> <rect x="7" y="32" width="1" height="1" style="fill:black"/> <rect x="8" y="32" width="1" height="1" style="fill:black"/> <rect x="10" y="32" width="1" height="1" style="fill:black"/> <rect x="16" y="32" width="1" height="1" style="fill:black"/> <rect x="17" y="32" width="1" height="1" style="fill:black"/> <rect x="18" y="32" width="1" height="1" style="fill:black"/> <rect x="20" y="32" width="1" height="1" style="fill:black"/> <rect x="21" y="32" width="1" height="1" style="fill:black"/> <rect x="22" y="32" width="1" height="1" style="fill:black"/> <rect x="23" y="32" width="1" height="1" style="fill:black"/> <rect x="24" y="32" width="1" height="1" style="fill:black"/> <rect x="31" y="32" width="1" height="1" style="fill:black"/> <rect x="32" y="32" width="1" height="1" style="fill:black"/> <rect x="33" y="32" width="1" height="1" style="fill:black"/> <rect x="34" y="32" width="1" height="1" style="fill:black"/> <rect x="35" y="32" width="1" height="1" style="fill:black"/> <rect x="36" y="32" width="1" height="1" style="fill:black"/> <rect x="38" y="32" width="1" height="1" style="fill:black"/> <rect x="39" y="32" width="1" height="1" style="fill:black"/> <rect x="12" y="33" width="1" height="1" style="fill:black"/> <rect x="15" y="33" width="1" height="1" style="fill:black"/> <rect x="16" y="33" width="1" height="1" style="fill:black"/> <rect x="17" y="33" width="1" height="1" style="fill:black"/> <rect x="18" y="33" width="1" height="1" style="fill:black"/> <rect x="19" y="33" width="1" height="1" style="fill:black"/> <rect x="22" y="33" width="1" height="1" style="fill:black"/> <rect x="24" y="33" width="1" height="1" style="fill:black"/> <rect x="27" y="33" width="1" height="1" style="fill:black"/> <rect x="29" y="33" width="1" height="1" style="fill:black"/> <rect x="30" y="33" width="1" height="1" style="fill:black"/> <rect x="32" y="33" width="1" height="1" style="fill:black"/> <rect x="36" y="33" width="1" height="1" style="fill:black"/> <rect x="37" y="33" width="1" height="1" style="fill:black"/> <rect x="38" y="33" width="1" height="1" style="fill:black"/> <rect x="39" y="33" width="1" height="1" style="fill:black"/> <rect x="4" y="34" width="1" height="1" style="fill:black"/> <rect x="5" y="34" width="1" height="1" style="fill:black"/> <rect x="6" y="34" width="1" height="1" style="fill:black"/> <rect x="7" y="34" width="1" height="1" style="fill:black"/> <rect x="8" y="34" width="1" height="1" style="fill:black"/> <rect x="9" y="34" width="1" height="1" style="fill:black"/> <rect x="10" y="34" width="1" height="1" style="fill:black"/> <rect x="12" y="34" width="1" height="1" style="fill:black"/> <rect x="14" y="34" width="1" height="1" style="fill:black"/> <rect x="18" y="34" width="1" height="1" style="fill:black"/> <rect x="20" y="34" width="1" height="1" style="fill:black"/> <rect x="24" y="34" width="1" height="1" style="fill:black"/> <rect x="27" y="34" width="1" height="1" style="fill:black"/> <rect x="28" y="34" width="1" height="1" style="fill:black"/> <rect x="29" y="34" width="1" height="1" style="fill:black"/> <rect x="32" y="34" width="1" height="1" style="fill:black"/> <rect x="34" y="34" width="1" height="1" style="fill:black"/> <rect x="36" y="34" width="1" height="1" style="fill:black"/> <rect x="37" y="34" width="1" height="1" style="fill:black"/> <rect x="4" y="35" width="1" height="1" style="fill:black"/> <rect x="10" y="35" width="1" height="1" style="fill:black"/> <rect x="12" y="35" width="1" height="1" style="fill:black"/> <rect x="14" y="35" width="1" height="1" style="fill:black"/> <rect x="16" y="35" width="1" height="1" style="fill:black"/> <rect x="17" y="35" width="1" height="1" style="fill:black"/> <rect x="18" y="35" width="1" height="1" style="fill:black"/> <rect x="19" y="35" width="1" height="1" style="fill:black"/> <rect x="23" y="35" width="1" height="1" style="fill:black"/> <rect x="32" y="35" width="1" height="1" style="fill:black"/> <rect x="36" y="35" width="1" height="1" style="fill:black"/> <rect x="38" y="35" width="1" height="1" style="fill:black"/> <rect x="4" y="36" width="1" height="1" style="fill:black"/> <rect x="6" y="36" width="1" height="1" style="fill:black"/> <rect x="7" y="36" width="1" height="1" style="fill:black"/> <rect x="8" y="36" width="1" height="1" style="fill:black"/> <rect x="10" y="36" width="1" height="1" style="fill:black"/> <rect x="12" y="36" width="1" height="1" style="fill:black"/> <rect x="13" y="36" width="1" height="1" style="fill:black"/> <rect x="15" y="36" width="1" height="1" style="fill:black"/> <rect x="16" y="36" width="1" height="1" style="fill:black"/> <rect x="19" y="36" width="1" height="1" style="fill:black"/> <rect x="20" y="36" width="1" height="1" style="fill:black"/> <rect x="22" y="36" width="1" height="1" style="fill:black"/> <rect x="23" y="36" width="1" height="1" style="fill:black"/> <rect x="24" y="36" width="1" height="1" style="fill:black"/> <rect x="26" y="36" width="1" height="1" style="fill:black"/> <rect x="28" y="36" width="1" height="1" style="fill:black"/> <rect x="32" y="36" width="1" height="1" style="fill:black"/> <rect x="33" y="36" width="1" height="1" style="fill:black"/> <rect x="34" y="36" width="1" height="1" style="fill:black"/> <rect x="35" y="36" width="1" height="1" style="fill:black"/> <rect x="36" y="36" width="1" height="1" style="fill:black"/> <rect x="38" y="36" width="1" height="1" style="fill:black"/> <rect x="40" y="36" width="1" height="1" style="fill:black"/> <rect x="4" y="37" width="1" height="1" style="fill:black"/> <rect x="6" y="37" width="1" height="1" style="fill:black"/> <rect x="7" y="37" width="1" height="1" style="fill:black"/> <rect x="8" y="37" width="1" height="1" style="fill:black"/> <rect x="10" y="37" width="1" height="1" style="fill:black"/> <rect x="14" y="37" width="1" height="1" style="fill:black"/> <rect x="16" y="37" width="1" height="1" style="fill:black"/> <rect x="18" y="37" width="1" height="1" style="fill:black"/> <rect x="22" y="37" width="1" height="1" style="fill:black"/> <rect x="25" y="37" width="1" height="1" style="fill:black"/> <rect x="29" y="37" width="1" height="1" style="fill:black"/> <rect x="30" y="37" width="1" height="1" style="fill:black"/> <rect x="31" y="37" width="1" height="1" style="fill:black"/> <rect x="33" y="37" width="1" height="1" style="fill:black"/> <rect x="34" y="37" width="1" height="1" style="fill:black"/> <rect x="4" y="38" width="1" height="1" style="fill:black"/> <rect x="6" y="38" width="1" height="1" style="fill:black"/> <rect x="7" y="38" width="1" height="1" style="fill:black"/> <rect x="8" y="38" width="1" height="1" style="fill:black"/> <rect x="10" y="38" width="1" height="1" style="fill:black"/> <rect x="13" y="38" width="1" height="1" style="fill:black"/> <rect x="17" y="38" width="1" height="1" style="fill:black"/> <rect x="18" y="38" width="1" height="1" style="fill:black"/> <rect x="19" y="38" width="1" height="1" style="fill:black"/> <rect x="22" y="38" width="1" height="1" style="fill:black"/> <rect x="24" y="38" width="1" height="1" style="fill:black"/> <rect x="25" y="38" width="1" height="1" style="fill:black"/> <rect x="26" y="38" width="1" height="1" style="fill:black"/> <rect x="33" y="38" width="1" height="1" style="fill:black"/> <rect x="34" y="38" width="1" height="1" style="fill:black"/> <rect x="35" y="38" width="1" height="1" style="fill:black"/> <rect x="39" y="38" width="1" height="1" style="fill:black"/> <rect x="4" y="39" width="1" height="1" style="fill:black"/> <rect x="10" y="39" width="1" height="1" style="fill:black"/> <rect x="15" y="39" width="1" height="1" style="fill:black"/> <rect x="17" y="39" width="1" height="1" style="fill:black"/> <rect x="18" y="39" width="1" height="1" style="fill:black"/> <rect x="19" y="39" width="1" height="1" style="fill:black"/> <rect x="20" y="39" width="1" height="1" style="fill:black"/> <rect x="21" y="39" width="1" height="1" style="fill:black"/> <rect x="22" y="39" width="1" height="1" style="fill:black"/> <rect x="24" y="39" width="1" height="1" style="fill:black"/> <rect x="26" y="39" width="1" height="1" style="fill:black"/> <rect x="28" y="39" width="1" height="1" style="fill:black"/> <rect x="34" y="39" width="1" height="1" style="fill:black"/> <rect x="35" y="39" width="1" height="1" style="fill:black"/> <rect x="36" y="39" width="1" height="1" style="fill:black"/> <rect x="37" y="39" width="1" height="1" style="fill:black"/> <rect x="38" y="39" width="1" height="1" style="fill:black"/> <rect x="39" y="39" width="1" height="1" style="fill:black"/> <rect x="4" y="40" width="1" height="1" style="fill:black"/> <rect x="5" y="40" width="1" height="1" style="fill:black"/> <rect x="6" y="40" width="1" height="1" style="fill:black"/> <rect x="7" y="40" width="1" height="1" style="fill:black"/> <rect x="8" y="40" width="1" height="1" style="fill:black"/> <rect x="9" y="40" width="1" height="1" style="fill:black"/> <rect x="10" y="40" width="1" height="1" style="fill:black"/> <rect x="13" y="40" width="1" height="1" style="fill:black"/> <rect x="14" y="40" width="1" height="1" style="fill:black"/> <rect x="17" y="40" width="1" height="1" style="fill:black"/> <rect x="20" y="40" width="1" height="1" style="fill:black"/> <rect x="21" y="40" width="1" height="1" style="fill:black"/> <rect x="23" y="40" width="1" height="1" style="fill:black"/> <rect x="25" y="40" width="1" height="1" style="fill:black"/> <rect x="27" y="40" width="1" height="1" style="fill:black"/> <rect x="29" y="40" width="1" height="1" style="fill:black"/> <rect x="31" y="40" width="1" height="1" style="fill:black"/> <rect x="33" y="40" width="1" height="1" style="fill:black"/> <rect x="36" y="40" width="1" height="1" style="fill:black"/> <rect x="39" y="40" width="1" height="1" style="fill:black"/> <rect x="40" y="40" width="1" height="1" style="fill:black"/></svg>